<?xml version="1.0" encoding="UTF-8"?>
<svg id="Layer_7" xmlns="http://www.w3.org/2000/svg" version="1.1" viewBox="0 0 1293.4 374.7">
  <!-- Generator: Adobe Illustrator 29.3.0, SVG Export Plug-In . SVG Version: 2.1.0 Build 146)  -->
  <defs>
    <style>
      .st0, .st1 {
        isolation: isolate;
      }

      .st0, .st2 {
        opacity: .5;
      }

      .st3 {
        fill: #07382f;
      }

      .st4 {
        fill: #c64700;
      }

      .st5 {
        fill: #69c6b5;
      }
    </style>
  </defs>
  <g class="st2">
    <path class="st3" d="M160.7,209c7.2,7,14.9,13.5,21.7,21-8,.2-5.2,6.2-6.5,11.6-3.1,12.7-12.4,14.7-22.6,19.6,5.9,5.8,20.7,10,25.1,16.1,2.1,2.8,4.8,14.9,5.4,18.8,1.3,9.2-2.1,10.1-7.4,3-1.1-1.5-1.1-4.8-3-5.3-6,16.4-6.4,34-8.1,51.2l-6-1,6.5,5.1c5.1,1.5,9.4,2.5,8.5,8.9-2,2.9-17.1-1.3-20.6-1.9-1.8-.2-3.5.8-5.4.5-15-2-9.8-4.3-8.7-14.8.4-4.1.2-9.2.9-13.1.9-4.9,4.6-9,3.3-13.8-13.5,8.8-23.1,21.8-34.7,32.7h-2s-7.6-6.6-7.6-6.6c-.9,0-4.8,10.8-4.6,12.5.6,3.7,5,2.6,7.1,5.1-1.8,4.7-10,5.8-14,4-7.3-3.3-8.2-26.4-7.6-33.7,7.3-3.5,13.1-8.8,19.7-13.5,1.7-1.2,3.8-1.4,5.5-2.5,5.2-3.8,9.7-9.5,15.6-12.6-18.9-8.1-49.8-18-41.7-44.7,2.1-6.9,20.8-25,27.2-30.1,9.9-8,21.3-13.8,32.6-19.6-8.6-10.6-19.9-20.2-28.7-30.6-5.1-6-9.3-15.1-15.5-19.6-2.7-1.9-12.4-4.8-12.9-5.7-1.8-2.9,2.8-10.4,2.9-13.9l2.5,1c24.2,24.2,48.7,48.1,73.2,72h0Z"/>
    <path class="st3" d="M180.3,209.2c2.8-7.5,6.6-16.4,16.2-15.5l11.5,34.2c0,7-7.8,8.8-13.1,11.3l-56.8-56c3.8,1.6,6.9,4.8,10.5,7.1,1.6,1,3.5,1.2,4.9,2.1,3.9,2.5,24,18.3,26.7,16.8h0Z"/>
    <path class="st3" d="M213.3,223.1c-.6.6-2.5,1.4-3.2,1.2l-10.6-31.1c12.6-.6,22,21.8,13.8,29.9h0Z"/>
    <path class="st3" d="M85.8,125.1l-.9,5.9-4-2c-.5,2.5,2.8,3,2.8,5.3,0,1.2-2.7,7.5-3.8,6.7-.6-4.5-6.1-11.2-5-15.4.1-.4,3.4-1.5,2-4.7,5-1.3,4.5,4.2,8.9,4.1h0Z"/>
    <path class="st3" d="M92.4,132.6c2.2,3,5.2,5.9,4.6,10.5-4.7-5-13.6-8.5-9-16.1,2.1,1.1,3.1,3.7,4.4,5.6h0Z"/>
  </g>
  <g class="st0">
    <g class="st1">
      <path class="st5" d="M72.5,151.2c15-21.2,30.1-42.4,45.1-63.6,9.4-13,18.9-26.3,28.5-40,9.6-13.6,19.5-27.5,29.6-41.5.4,2.2.8,4.5,1.1,6.7.3,2.3.6,4.5,1.1,6.7,4.1,26.5,8.3,53.3,12.7,80.5,4.4,27.2,8.8,54.6,13.2,82.2,4.4,27.6,8.8,55.1,13.1,82.6-13.5-13.2-27.1-26.4-40.9-39.6-13.8-13.2-27.5-26.4-41.2-39.7-13.7-13.3-27.4-26.5-41.1-39.6-13.6-13.1-27.3-26.4-41.1-39.6l1.7-7.3c12.8,12.4,25.6,24.7,38.3,37.1,12.8,12.4,25.6,24.7,38.3,37.1,44.3,42.7,69.8,67.4,76.7,74.1-4-25-7.9-50-11.9-75.1-4-25-7.9-50-11.9-75.1-4-25-7.9-50.1-11.9-75.1-11.5,16.2-23.1,32.5-34.6,48.7-11.5,16.2-23,32.4-34.5,48.4-11.5,16.2-23.1,32.5-34.6,48.7-11.5,16.2-23.1,32.5-34.6,48.7l-6.7-1.6c15.3-21.4,30.5-42.7,45.5-63.9Z"/>
    </g>
  </g>
  <g class="st2">
    <path class="st3" d="M395.6,315.1v-19.7c0-.4-4.5-5.6-4.9-7.4-.5-2,.8-3.4.6-4.8-.1-1.3-2.2-20.7-4.9-18.7-2.2,5.8-5.4,10.5-5.9,17-.2,2.8,1.2,4.7.6,7.5-.5,2.5-3.7,4-3.8,4.5-1.4,7.2.5,15.2,0,22.6-9.6.2-22.6-.8-30-7.4-1.6-1.4-3.1-5-4.9-6.8-9.3-9.5-18.2-19.1-24.7-30.8,2.3-8.3,6.6-16.8,11.6-23.7,7.3-10.1,13-21,21.7-30.9,17.3-19.7,41.4-23.3,62.6-7,5.2,4,21.2,27.4,24.8,33.9,2.8,5,10,21.6,9.8,26.7-.1,3.2-7.9,18-10,21.5-1.7,2.8-10,14.8-11.8,16.5-5.2,4.9-23.6,7.3-30.9,7.1h0ZM355.2,249.4c-3.4-2.3-11.6,12.1-13.6,14.2s-6.2,3.8-6.4,4.2c-2.1,3.3,4.5,10.2,6.1,13.3,3.9,7.4,6.3,16,14,20.9-.5-3.5.4-5.7,2-8.6-5.5-6.8-.6-4.4.8-6.8,1.5-2.6-2.1-16.4-2.4-20.7-.3-5.5,1.6-11.2-.4-16.5h0ZM416.9,304c10.1-8.6,9.6-23.5,17-34.1-5.2-6.9-11.5-11.5-14-20.6-3.1,1.5-1,6.4-1.2,8.5-.5,6.6-5.3,23.2-3.6,27.1,1.2,2.8,4.3,3,1.8,7.2-.4.7-2,.6-2,1.1.3,3,4.4,6.2,2,10.7Z"/>
    <path class="st3" d="M418.9,314.1c.1,1.6-1.5.4-2.2,2.4-1.1,2.9-.4,6.2-1.1,9-.6,2.8-2.5,5.7-2.7,8.5-.4,3.9,1.9,8.8.8,11.9-.5,1.5-2.9,1.4-2.9,2.1,0,3.2,6.3,7,4.9,11-1.3,3.8-14.6,2.6-18,2.6-.9-2.9-.8-4.5.9-7l-3-2.5,3-3.5-4.1-.5c-3.1-2.1,4.5-22,2-26.8l-6.5-.5-1.5-2.6,30.4-4h0Z"/>
    <path class="st3" d="M382.5,318.2v3h-5.1c-2.7,10.8,1.3,18.3,4,28.3h-6.1v13.2c-6-.6-14.2,2.3-18.1-3.7l4.9-7.9c-3.6-4.9-1.3-10.6-2.1-16.1s-4.7-12.1-3-18.8c8.3,2,16.8,2.3,25.3,2h0Z"/>
  </g>
  <g class="st0">
    <g class="st1">
      <path class="st5" d="M326.2,304.6c-17.8-11.3-32-26.5-42.6-45.5-10.6-19-16-39.6-16-61.9,0-22.9,4.8-43.6,14.6-62,9.8-18.4,23.5-32.8,41.2-43.1,17.6-10.4,37.7-15.6,60.2-15.7,22.5,0,42.6,5,60.3,15.3,17.7,10.3,31.5,24.6,41.4,42.9,9.9,18.3,14.9,39,15,61.9,0,22.3-5.1,42.9-15.6,62-10.5,19.1-24.6,34.3-42.4,45.7-17.7,11.4-37.1,17.2-57.9,17.2-20.9,0-40.2-5.6-58-16.9ZM438.5,298.7c16.7-10.7,30-25.2,40-43.3,9.9-18.2,14.9-37.8,14.8-58.9,0-21.6-4.8-41-14.1-58.3-9.3-17.3-22.4-30.8-39-40.7-16.7-9.8-35.6-14.7-56.7-14.6-21.1,0-40,5.1-56.6,15-16.6,9.9-29.5,23.6-38.8,40.9-9.2,17.4-13.8,36.8-13.8,58.4,0,21.1,5.1,40.7,15.2,58.8,10,18.1,23.4,32.4,40.2,43.1,16.8,10.6,34.9,15.9,54.4,15.8,19.5,0,37.6-5.5,54.3-16.2Z"/>
    </g>
  </g>
  <g class="st2">
    <path class="st4" d="M565.6,80.1l2.2-3.6c8.7,6.6,2.4,10.4,1.5,16-.5,3.6,10.9,16.5,13.6,20.4,1.3,1.8,3,6.1,3.8,7,1.4,1.3,4.4.7,6.5,1.6,11.2,4.4,12.5,7.8,26.2,8.8,3.5.3,7.9-.9,10.6-.5,2.3.4,4,3.3,6.8,2.7.2-2.8-.2-5.6-1.3-8.2-.8-1.8-2.6-2.1-2.8-3.5,0-.4.4-7.1.5-7.7,1.2-7.4,4.2-15.1,13-14.9,8.7.2,14.8,15.7,13,22.7-.4,1.5-6.9,10.2-2,11.4,2.5.6,13-5.1,16.3-5.1,2.7,0,6.4,2.6,12.3,1.4,3-.6,4.6-3.2,6.8-4.1,3.1-1.3,13.5-3.5,15.2-4.7,1.3-.9,5.1-9.1,6.7-11.4,2.7-3.9,11.3-12.6,10.9-17.1-.1-1.3-1.6-2.5-1.9-4.5-.5-4.2,1.2-10.3,5.5-5.9,1.5-3.1,1.4-8.1,4.5-9.9-.9,5.1,1.8,11,1.8,15.8,0,7.2-12,30.9-16.4,37.8-3.8,6-12.4,10.5-18.3,15.1-2,1.6-3.2,4.1-4.4,5.1-1.7,1.4-10.2,5.1-10.6,6.4-2.4,21.3,1.5,42.1-4.5,63-1,3.6-3.5,5.1-3.7,10.9-.4,17.6,1.1,35.6-.8,53.3-.3,3.2-2.5,6-2.7,8.2-.2,3.4,1.1,9.1.9,13.5-.3,8.5-3.1,17.7-3.5,26.2-.2,4.1,3.3,10.7-2,12.7l3.6,5.4-14,4c-1.8-1.1-1.1-1.9-.4-3.5-2.7-.3-6.1,1-8.1-1.4,2.9-3.6,2.5,2.7,6.7-.4,3-2.2-1.5-4.2-1.7-4.6-3-4.6,2.4-43.3-.7-51.8-3.8-9-3.1-20.3-4.3-30-.2-1.3-.7-2.8-1.8-1.3l-2,23.8c-7.3,12.4-1.3,30.7-3.5,45.3l2.8,16.7h-4.4c0,.1-1,3.2-1,3.2l3.2.4.4,4.6-19-1.8c.6-3.5,5.2-4.9,4.5-9h-3.5c-2-7.2-.5-14.8-1-22.1-.4-6.8-2.8-17.5-2.7-23.5,0-2.8,2.8-5.5,2.5-7-.2-1.1-2.1-2.4-2.5-4.7-1.2-7.3.9-16.8.4-24.1-.3-4.6-1.9-8.7-2.3-12.9-.5-5,1.3-11.6.9-15.3-.2-1.6-1.7-2.9-1.7-4.6s1.5-4.1,1.4-5.5c-.2-1.2-2.6-2.1-3.1-3.8s-1.8-12.8-2-15.2c-.5-6.7,1.8-13.9.9-20.8-2.1-6.8.3-15.1-1.9-21.6-1.4-4.1-5.8-5.7-8.6-8.6-1.1-1.1-1-3.1-1.9-3.7-1.4-1.1-7-2.7-9.8-4.4-2.2-1.3-16.5-12-17.5-13.2-5.5-7-17.8-30.6-18.9-39-.7-5.4,1.2-14.5,1.6-20.1l5.4,11.7h0Z"/>
    <path class="st4" d="M673.1,347.5c-1.4,5-9.3,3.2-13.5,3.6-.2-1.3,1.6-1.3,2.5-1.5,1.5-.4,10.5-2.5,11-2.1h0Z"/>
    <path class="st4" d="M555.7,81c.2-4.5-1.2-11.1,2.7-14.4-1.6,4.4.8,11.4-2.7,14.4Z"/>
  </g>
  <g class="st0">
    <g class="st1">
      <path class="st5" d="M607.8,341.4c-12-8.4-21.6-20.4-28.8-36-7.2-15.6-11.4-33.8-12.4-54.7-.8-16.3-1.6-32.6-2.5-49-.9-16.3-1.7-32.6-2.5-49-1-16-1.9-32.2-2.7-48.5-.8-16.3-1.7-32.6-2.7-49h6.9c1,16,1.9,32.2,2.7,48.5.8,16.3,1.7,32.5,2.7,48.5.8,16,1.6,32.2,2.5,48.3.9,16.2,1.7,32.4,2.5,48.8,1,18.9,4.8,35.6,11.3,50.2,6.5,14.6,15.2,25.9,26,34.1,10.9,8.1,23.3,12.2,37.5,12.1,14.1,0,26.6-4.2,37.4-12.4,10.8-8.2,19.4-19.6,25.8-34.2,6.4-14.6,10.1-31.4,11-50.3.9-16.3,1.7-32.6,2.4-48.8.7-16.2,1.5-32.3,2.4-48.3.7-16,1.4-32.2,2.2-48.6.8-16.3,1.5-32.5,2.2-48.6h6.9c-.7,16.3-1.4,32.6-2.2,49-.8,16.3-1.5,32.5-2.2,48.6-.9,16.3-1.7,32.7-2.4,49-.7,16.3-1.5,32.7-2.4,49-1.6,31.2-9.7,56.3-24.4,75.3-14.7,19-33.6,28.5-56.7,28.5-15.1,0-28.6-4.1-40.6-12.5Z"/>
    </g>
  </g>
  <g class="st2">
    <path class="st3" d="M925.6,195.1c4.4,6.6,13,17.6,14.8,25.3,1.8,7.4-2.1,12.2-6.9,17.6-1.7,1.9-7.3,6-7.4,7.4-.1,2.1,2.5,5.1,2.5,8.3,0,3.6-2.4,7.5-2.5,10-.2,3.5,1.7,10.2,1.7,14-.1,8-7.5,16.3,3.3,21.7.6,2.8-2.6,6-2.4,7.1.1.9,2,2.2,2.3,4.3,1.4,8.7.5,18.5.8,27.3,0,2.7,2,7.2.4,9.5-.4.6-2.1.6-2.1,1.3,0,4,9.4,10.5-4.6,11.8-13.5,1.3-5-4.2-6.2-8.5-.3-1-1.9-1.1-2.5-1.9-2.7-4.2-.2-15.8-.8-20.4-.8-6.6-3-17.8-6.6-23.3-.6-.9-2.2-.9-2.8-2.2-1.2-2.7-.8-11.2-1.8-15.6-.8-3.8-2.6-8.9-3.7-12.8-.4-1.2.5-1.5-1.7-1.2.7,5.6-2.3,11.2-3.3,16.2-.7,3.4.3,6.5-1.1,10.5-1.2,3.5-4.1,5.2-5.4,7.9-1.7,3.5-7.2,24-7.7,28-.7,6.1,6.8,15,0,16.5,2,2.1,3.6,4.9,3.3,7.9-4.8-.1-16.5,1.2-17.4-5.5-.2-1.8.7-3.1.6-4.2,0-1.2-1.4-2.2-1.5-3.9-.4-6.5,1.1-34.5,3.8-39.3.9-1.6,3.2-2.2,2.8-4.2l-3.2-2.1c.9-2,2.5-3.6,3.3-5.6,4.1-10.2.2-13.7-.1-23.4-.2-6.7,2.1-14.6,1.2-21.5,0-.6-1.3-4.9-1.5-5.2-.3-.4-7.5-4-9.2-5.3-3.2-2.4-11.1-8-11-11.7,0-3.3,4.8-14.1,7-16.9,1.4-1.7,3-2.3,4-3.4,2.8-3.4,3.5-8.2,5.8-11.6,5.6-8.2,13.7-12.1,23.7-9.5l5.7,37.6c2.2.2,1.4,0,1.6-1.3,2.5-13.6,3.7-27.4,6.7-40.9,8.3,1.1,13.2,4.6,17.7,11.3h0ZM875.7,231.8c0-3.3.3-6.9-1.2-9.9-4.2,3.9-3.1,6.8,1.2,9.9h0Z"/>
    <path class="st3" d="M906.3,183c-2,10.9-2.8,22.4-5.2,33.3-.2.8-.3,2.5-1.4,2.3l-4.2-31.4c2.1,0,4.4.3,6.4-.6,2.3-1,.6-4.6,4.3-3.6h0Z"/>
  </g>
  <g class="st0">
    <g class="st1">
      <path class="st5" d="M781.6,240.5c3.1-17.9,6.3-36.4,9.6-55.4,10-57.9,17.7-102.5,23-133.8,7.4,10,14.8,19.9,21.9,29.9,7.2,10,14.5,19.9,21.9,29.9,7.2,10,14.4,19.9,21.7,29.9,7.3,10,14.6,19.9,21.7,29.9,7.1-10,14.3-20,21.6-30,7.2-10,14.6-20,21.9-30,7.4-10,14.6-20,21.7-30,7.1-10,14.4-20,21.7-30,3.9,22.3,7.7,43.6,11.5,63.9,3.8,20.3,7.2,39.8,10.3,58.3,8.6,46.2,15.9,86.2,21.8,120.1h-7.7c-2.9-16.2-5.8-32.6-8.8-49.1-3-16.5-6-33.2-9.2-50.1-11.4-62.9-19-104.5-22.6-124.6-7.1,9.8-13.9,19.1-20.4,27.9-6.5,8.8-12.5,17.2-18.1,25.1-7.4,10-14.3,19.6-20.8,28.8-6.5,9.2-12.9,18.1-19.3,26.7l.2,57.1h-7.3s-.2-56.8-.2-56.8c-2.8-3.7-5.6-7.5-8.5-11.5-2.8-3.9-5.6-7.9-8.5-11.8-8.7-11.8-18.2-24.7-28.3-38.8-10.1-14-21.5-29.5-34.1-46.4-3.5,20.5-7,40.5-10.3,60.1-3.4,19.6-6.8,38.9-10.4,57.7-3.3,18.1-6.4,36-9.4,53.7-3,17.7-6,35.2-9,52.6h-7.7c3.3-17.6,6.5-35.4,9.6-53.3Z"/>
    </g>
  </g>
  <g class="st2">
    <path class="st3" d="M1233.9,265.1c-2.6-1.9-5.2-4.4-7.2-6.8-4.8-5.9-12.3-22-16.2-25.7-1.5-1.4-9.2-3.8-11.3-6-1.1,5.8,4.6,13.6,4.8,17.9.2,5.8.5,18.4,0,24-.4,5.3-4.5,15-3.9,19.3.6,3.6,10.4,7.9,1,11.2,3.5,5,2.5,13.6,1.9,19.8-.6,6.2-3.4,12.6-3.9,17.4-.5,4.6,2.3,9.4,0,13.4-.3.6-1.9.6-2,1.2-.4,3.6,7.8,8.8,2.3,11.8-2.2,1.2-14,2.1-15.3.3l.5-11.6-3.8,1c-1.8-8.4,2.8-16.2,2.5-25.4,0-2.8-1.7-5.9-1.7-8.8,0-7.4,2.8-11.4-1.2-19.5-.3-.6-2-.7-2.4-1.8-.9-2.4.1-8-.3-11.3-.9-7.4-3-14.6-4.7-21.8l-11.2,26c-.6,2.5.9,4.3.4,7-.5,2.5-3.7,3.9-3.7,4.2,0,4.4,1.2,10.8,1.1,15.4-.2,6.4-2.2,15-2,21.2,0,5.1,4.2,10.5,2.9,16h-3.9c0,4.3-.3,8.6-5,10-2.2.6-12.6,0-13.2-1.9-1.6-5,6.1-7,5.8-10.4-6.9-3.4-2.3-12.3-3-17.3-.2-1.7-1.6-3.1-1.9-5-1.3-9.7-3.8-21.9,0-30.8l-2-1.9c5.8-9.5,2.2-20.4,2.9-31,.7-11.1,3.7-20.7,3.9-32.8,0-1.6,1.1-3.4,1-4.8-.2-1.8-4.1-6.7-6.2-6.2-6.6,5.7-10.1,13.6-14.6,21.1-1.1,1.9-1.4,4.3-2.5,6.2-6.2,10.1-15.4,17.7-24,25.7l61.7-89.3c5.7-3.5,14.9-3.9,19.3,2l55,78.6h0Z"/>
    <path class="st3" d="M1259,296l-80.1-112.9c3.3.9,7.4-1.1,10.1-.9,5.4.3,19.1,15.2,22.6,19.9,8.9,12,9,21.2,15.8,32.5,11.5,19.1,24.3,32.5,30.7,55.2.6,2,1.2,4.1,1,6.2h0Z"/>
    <path class="st3" d="M1157.7,183.1l-79.1,112.9c-.6-7.4,3.7-11.3,6.6-17,6.4-12.5,13.4-25.7,21.5-37.4,2.6-3.8,5.9-6.1,8.7-10.6,5.9-9.7,6.6-21.1,12.6-28.9,6.1-7.9,19-21.2,29.7-19h0Z"/>
    <path class="st3" d="M1250.3,293.1l-1.5,4.8c-4-4.2-8-11.5-2.9-16.4l17.3,24.1-.9,3.8c-6.6-3.5-7.2-11.6-12.1-16.4h0Z"/>
    <path class="st3" d="M1090.9,295.7c-3.2,3.1-5,.1-4.1-3.6-3.9,3.9-5.1,9.3-7.3,14-.7,1.4-.6,2.9-2.8,2.5l.8-6.5,17.1-24.4c0,5.7,1,13.6-3.6,18.1h0Z"/>
  </g>
  <g class="st0">
    <g class="st1">
      <path class="st5" d="M1106.5,252.7c14.5-22.4,29-44.8,43.6-67.4,14.5-22.5,29-45,43.4-67.4,14.4-22.4,28.8-44.7,43.4-67-11.6,0-23.1,0-34.4.1-11.3,0-22.8,0-34.4.1-5.7,0-11.4,0-17.2,0-5.8,0-11.5,0-17.2-.4-5.7,0-11.4,0-17.2,0s-11.7,0-17.6,0c14.7,22.4,29.3,44.8,44,67.1,14.7,22.3,29.3,44.7,44,67.1,14.7,22.4,29.3,44.8,44,67.1,14.7,22.3,29.3,44.7,44,67.1h-9.4c-12.6-19.2-25.4-38.7-38.6-58.7-13.2-20-26.8-40.8-40.9-62.4-15-22.7-30.8-46.8-47.6-72.4-16.8-25.5-34.7-52.9-53.9-82.1,9.2,0,18.5,0,27.9,0s18.7,0,27.9,0c9.2,0,18.5,0,27.7,0,9.2,0,18.5,0,27.9,0,9.4,0,18.7,0,27.9,0,9.2,0,18.5,0,27.7,0-19,29.3-36.8,56.8-53.4,82.4-16.6,25.6-32.3,49.9-47.1,72.7-13.9,21.7-27.4,42.6-40.5,62.7-13,20.1-25.8,39.8-38.2,59h-9.4c14.5-22.5,29-44.9,43.6-67.3Z"/>
    </g>
  </g>
</svg>