<?xml version="1.0" encoding="UTF-8"?>
<svg id="Layer_7" data-name="Layer 7" xmlns="http://www.w3.org/2000/svg" viewBox="0 0 1293.39 374.69">
  <defs>
    <style>
      .cls-1, .cls-2, .cls-3, .cls-4, .cls-5, .cls-6, .cls-7 {
        isolation: isolate;
      }

      .cls-1, .cls-8 {
        opacity: .35;
      }

      .cls-2 {
        font-size: 429.66px;
      }

      .cls-2, .cls-3, .cls-4, .cls-6, .cls-7 {
        fill: #69c6b5;
        font-family: Movement-Regular, Movement;
        font-variation-settings: 'wght' 100, 'SPAC' 100;
      }

      .cls-3 {
        font-size: 344.14px;
      }

      .cls-4 {
        font-size: 341.67px;
      }

      .cls-6 {
        font-size: 406.2px;
      }

      .cls-9 {
        fill: #07382f;
      }

      .cls-7 {
        font-size: 348.37px;
      }

      .cls-10 {
        fill: #c64700;
      }
    </style>
  </defs>
  <g class="cls-8">
    <path class="cls-9" d="M160.68,208.97c7.19,7,14.94,13.53,21.72,20.99-8.01.23-5.21,6.25-6.49,11.58-3.05,12.67-12.37,14.69-22.63,19.56,5.95,5.83,20.73,10,25.12,16.06,2.05,2.83,4.83,14.85,5.39,18.81,1.3,9.25-2.12,10.13-7.42,3.05-1.15-1.53-1.08-4.81-2.99-5.26-6.03,16.38-6.42,34.01-8.06,51.23l-6.02-.99,6.47,5.07c5.05,1.49,9.39,2.49,8.5,8.89-1.98,2.89-17.07-1.33-20.65-1.85-1.76-.25-3.51.76-5.43.51-15.01-1.99-9.82-4.34-8.68-14.82.45-4.08.18-9.16.95-13.12.95-4.85,4.63-9.01,3.27-13.81-13.51,8.77-23.08,21.75-34.68,32.71l-1.97-.02-7.56-6.56c-.94-.02-4.84,10.75-4.57,12.5.56,3.67,5.02,2.6,7.07,5.06-1.84,4.71-10.02,5.84-14.04,4.01-7.29-3.32-8.23-26.42-7.56-33.66,7.33-3.45,13.07-8.78,19.66-13.49,1.66-1.19,3.83-1.36,5.48-2.55,5.18-3.76,9.68-9.5,15.55-12.57-18.94-8.08-49.77-17.95-41.68-44.71,2.09-6.91,20.82-24.99,27.15-30.11,9.94-8.04,21.35-13.75,32.63-19.63-8.65-10.59-19.87-20.25-28.66-30.62-5.06-5.98-9.26-15.09-15.54-19.63-2.68-1.94-12.4-4.83-12.92-5.66-1.82-2.9,2.77-10.41,2.86-13.9l2.52.99c24.18,24.2,48.69,48.11,73.2,71.96v-.02h.01Z"/>
    <path class="cls-9" d="M180.28,209.23c2.82-7.46,6.64-16.38,16.23-15.53l11.5,34.23c.03,7.04-7.78,8.8-13.06,11.28l-56.75-55.96c3.79,1.58,6.94,4.79,10.52,7.05,1.55.98,3.47,1.22,4.89,2.14,3.89,2.5,24.01,18.33,26.66,16.8h0Z"/>
    <path class="cls-9" d="M213.29,223.14c-.57.56-2.49,1.4-3.16,1.22l-10.64-31.07c12.64-.63,22.01,21.84,13.79,29.85h.01Z"/>
    <path class="cls-9" d="M85.85,125.06l-.91,5.93-4-2.01c-.49,2.54,2.85,2.97,2.81,5.32-.02,1.17-2.74,7.53-3.81,6.73-.55-4.48-6.05-11.19-5.04-15.38.11-.44,3.44-1.49,2.01-4.72,5.03-1.3,4.48,4.22,8.93,4.12h.01Z"/>
    <path class="cls-9" d="M92.41,132.59c2.17,3.02,5.18,5.85,4.6,10.46-4.7-4.98-13.55-8.53-9.02-16.07,2.05,1.14,3.06,3.71,4.42,5.62h0Z"/>
  </g>
  <g class="cls-1">
    <g class="cls-5">
      <text class="cls-4" transform="translate(10.35 211.22) rotate(13.2)"><tspan x="0" y="0">A</tspan></text>
    </g>
  </g>
  <g class="cls-8">
    <path class="cls-9" d="M395.65,315.14v-19.73c0-.44-4.49-5.64-4.89-7.35-.45-1.95.77-3.44.64-4.8-.12-1.29-2.2-20.73-4.85-18.72-2.2,5.8-5.35,10.54-5.87,17-.23,2.8,1.16,4.71.58,7.51-.51,2.46-3.71,4.03-3.81,4.53-1.44,7.25.51,15.19-.02,22.57-9.56.19-22.64-.79-30.05-7.41-1.56-1.39-3.08-4.97-4.86-6.77-9.32-9.47-18.18-19.07-24.73-30.82,2.26-8.34,6.61-16.77,11.65-23.72,7.3-10.06,13.01-21.03,21.69-30.93,17.29-19.71,41.39-23.33,62.65-7.04,5.18,3.97,21.17,27.38,24.77,33.92,2.77,5.02,10,21.59,9.76,26.72-.15,3.16-7.88,18-9.99,21.45-1.72,2.81-9.96,14.79-11.81,16.53-5.23,4.92-23.62,7.27-30.89,7.06h.03ZM355.16,249.37c-3.43-2.3-11.62,12.06-13.63,14.18s-6.23,3.84-6.44,4.17c-2.13,3.33,4.48,10.23,6.11,13.33,3.89,7.43,6.3,16.01,13.97,20.93-.54-3.47.37-5.73,2.05-8.62-5.45-6.77-.61-4.39.77-6.77,1.54-2.64-2.15-16.36-2.41-20.72-.33-5.47,1.58-11.22-.42-16.51h0ZM416.91,304.01c10.14-8.56,9.59-23.54,17.03-34.09-5.21-6.88-11.52-11.49-14.02-20.55-3.07,1.51-1.01,6.35-1.16,8.53-.45,6.56-5.27,23.16-3.65,27.09,1.16,2.79,4.32,2.95,1.78,7.19-.44.72-2.04.62-1.98,1.15.33,2.98,4.35,6.25,2,10.68Z"/>
    <path class="cls-9" d="M418.92,314.14c.14,1.61-1.46.41-2.21,2.37-1.11,2.94-.44,6.17-1.07,9.01-.61,2.78-2.45,5.73-2.74,8.45-.4,3.92,1.94,8.79.82,11.91-.55,1.53-2.88,1.4-2.86,2.09.05,3.17,6.29,6.99,4.94,11.04-1.26,3.78-14.63,2.57-18.04,2.58-.94-2.87-.75-4.49.92-6.97l-3.05-2.55,3.05-3.54-4.1-.45c-3.07-2.07,4.49-22.02,2.03-26.83l-6.53-.47-1.51-2.6,30.35-4.05h0Z"/>
    <path class="cls-9" d="M382.5,318.18v3.03h-5.07c-2.67,10.84,1.27,18.3,4.05,28.33h-6.07v13.17c-6.02-.65-14.18,2.27-18.07-3.68l4.93-7.94c-3.61-4.91-1.34-10.6-2.1-16.15s-4.73-12.08-2.97-18.77c8.29,2.02,16.78,2.28,25.3,2.02h0Z"/>
  </g>
  <g class="cls-1">
    <g class="cls-5">
      <text class="cls-3" transform="translate(247.21 316.38) rotate(-.18)"><tspan x="0" y="0">O</tspan></text>
    </g>
  </g>
  <g class="cls-8">
    <path class="cls-10" d="M565.62,80.07l2.25-3.59c8.65,6.56,2.37,10.38,1.5,16-.55,3.58,10.9,16.55,13.61,20.36,1.3,1.83,2.95,6.12,3.84,7,1.37,1.34,4.38.72,6.55,1.58,11.16,4.42,12.46,7.79,26.18,8.82,3.5.26,7.88-.92,10.6-.47,2.28.37,3.96,3.34,6.83,2.69.23-2.82-.18-5.59-1.32-8.19-.78-1.77-2.62-2.11-2.78-3.49-.05-.39.44-7.12.53-7.65,1.24-7.4,4.16-15.13,12.97-14.91,8.65.22,14.84,15.74,12.97,22.72-.4,1.51-6.86,10.23-1.97,11.43,2.45.6,12.96-5.09,16.35-5.14,2.74-.04,6.43,2.6,12.28,1.41,2.95-.61,4.56-3.16,6.77-4.07,3.1-1.28,13.49-3.47,15.18-4.69,1.31-.94,5.08-9.09,6.69-11.38,2.71-3.87,11.35-12.62,10.87-17.09-.14-1.32-1.62-2.49-1.88-4.54-.53-4.23,1.19-10.31,5.48-5.9,1.55-3.12,1.41-8.05,4.52-9.94-.87,5.13,1.82,11.02,1.81,15.81-.02,7.21-12,30.88-16.44,37.77-3.84,5.97-12.42,10.53-18.31,15.12-2.02,1.57-3.19,4.14-4.37,5.11-1.71,1.39-10.16,5.08-10.56,6.37-2.4,21.29,1.51,42.07-4.54,63.02-1.05,3.64-3.54,5.13-3.66,10.85-.39,17.56,1.1,35.63-.84,53.31-.35,3.2-2.55,6.04-2.68,8.18-.21,3.41,1.09,9.08.91,13.54-.35,8.51-3.14,17.68-3.47,26.16-.16,4.08,3.29,10.69-2.02,12.66l3.62,5.41-14.02,3.95c-1.8-1.07-1.11-1.93-.41-3.49-2.66-.3-6.13,1.05-8.12-1.36,2.88-3.64,2.49,2.73,6.67-.36,3-2.22-1.47-4.24-1.69-4.59-2.95-4.65,2.43-43.33-.69-51.75-3.84-9.04-3.12-20.27-4.3-30.04-.16-1.34-.73-2.78-1.81-1.33l-2.02,23.77c-7.27,12.44-1.34,30.67-3.49,45.34l2.8,16.71-4.38.14-1.05,3.01,3.2.41.43,4.56-18.97-1.81c.58-3.54,5.23-4.86,4.52-9.03l-3.52-.09c-1.96-7.15-.54-14.7-1.01-22.03-.43-6.81-2.84-17.51-2.73-23.53.05-2.81,2.83-5.47,2.55-7.04-.2-1.13-2.09-2.38-2.48-4.72-1.22-7.28.86-16.77.44-24.15-.26-4.57-1.92-8.73-2.29-12.85-.45-5.03,1.28-11.62.9-15.27-.17-1.65-1.65-2.89-1.71-4.55s1.53-4.12,1.37-5.5c-.15-1.22-2.62-2.14-3.1-3.76s-1.79-12.76-1.96-15.19c-.49-6.7,1.8-13.9.92-20.81-2.08-6.76.35-15.1-1.91-21.58-1.43-4.1-5.76-5.67-8.59-8.6-1.1-1.14-1-3.08-1.88-3.74-1.41-1.06-7.04-2.7-9.82-4.42-2.16-1.34-16.53-12.03-17.48-13.24-5.51-6.96-17.76-30.57-18.88-38.95-.72-5.36,1.16-14.53,1.61-20.1l5.42,11.73h.01Z"/>
    <path class="cls-10" d="M673.12,347.51c-1.4,4.99-9.27,3.25-13.55,3.6-.21-1.3,1.59-1.26,2.52-1.52,1.48-.41,10.51-2.47,11.03-2.07h0Z"/>
    <path class="cls-10" d="M555.68,80.98c.25-4.51-1.17-11.05,2.69-14.45-1.57,4.4.75,11.44-2.69,14.45Z"/>
  </g>
  <g class="cls-1">
    <g class="cls-5">
      <text class="cls-2" transform="translate(530.12 351.13) rotate(-.18) scale(.85 1)"><tspan x="0" y="0">U</tspan></text>
    </g>
  </g>
  <g class="cls-8">
    <path class="cls-9" d="M925.64,195.12c4.44,6.6,13.01,17.58,14.84,25.28,1.77,7.43-2.08,12.17-6.91,17.62-1.67,1.89-7.3,5.96-7.38,7.43-.12,2.13,2.47,5.09,2.52,8.31.05,3.65-2.36,7.5-2.53,9.98-.23,3.55,1.71,10.19,1.65,13.99-.12,8.02-7.55,16.3,3.34,21.71.58,2.79-2.58,6.05-2.4,7.15.14.92,1.96,2.18,2.31,4.32,1.44,8.73.55,18.46.83,27.3.09,2.69,1.95,7.21.44,9.51-.42.64-2.11.6-2.12,1.26-.05,4.01,9.42,10.46-4.6,11.84-13.49,1.33-4.96-4.23-6.19-8.48-.29-1.01-1.93-1.13-2.45-1.91-2.73-4.17-.23-15.77-.82-20.43-.83-6.62-3.01-17.82-6.58-23.32-.56-.87-2.2-.89-2.77-2.22-1.16-2.74-.8-11.23-1.76-15.56-.84-3.76-2.58-8.91-3.73-12.83-.36-1.21.47-1.45-1.67-1.21.68,5.64-2.27,11.17-3.27,16.18-.67,3.38.28,6.47-1.09,10.49-1.2,3.53-4.07,5.23-5.36,7.88-1.72,3.55-7.19,24-7.65,28-.7,6.09,6.79,15,0,16.47,2.03,2.1,3.59,4.86,3.31,7.86-4.84-.14-16.53,1.17-17.38-5.45-.23-1.8.65-3.11.61-4.25-.05-1.24-1.38-2.18-1.49-3.91-.42-6.51,1.14-34.49,3.84-39.29.9-1.59,3.16-2.24,2.83-4.19l-3.16-2.07c.92-1.98,2.52-3.59,3.33-5.63,4.06-10.21.19-13.72-.13-23.36-.22-6.74,2.11-14.58,1.23-21.53-.07-.56-1.3-4.94-1.45-5.16-.3-.44-7.45-4-9.19-5.29-3.18-2.35-11.13-7.97-11.04-11.72.08-3.32,4.76-14.15,6.97-16.9,1.36-1.69,3.04-2.28,4.01-3.45,2.77-3.35,3.46-8.25,5.75-11.61,5.6-8.2,13.72-12.1,23.65-9.49l5.71,37.59c2.18.18,1.37.09,1.62-1.26,2.53-13.57,3.73-27.45,6.66-40.95,8.29,1.15,13.16,4.56,17.68,11.29h-.01ZM875.67,231.83c.06-3.33.33-6.87-1.23-9.93-4.16,3.85-3.07,6.79,1.23,9.93h0Z"/>
    <path class="cls-9" d="M906.29,183c-2.03,10.94-2.84,22.44-5.18,33.3-.17.8-.29,2.48-1.43,2.28l-4.15-31.44c2.1-.03,4.44.27,6.43-.55,2.35-.96.57-4.65,4.32-3.59h.01Z"/>
  </g>
  <g class="cls-1">
    <g class="cls-5">
      <text class="cls-7" transform="translate(745.17 293.91) rotate(-.18) scale(1.1 1)"><tspan x="0" y="0">M</tspan></text>
    </g>
  </g>
  <g class="cls-8">
    <path class="cls-9" d="M1233.92,265.09c-2.57-1.88-5.15-4.35-7.15-6.84-4.77-5.93-12.27-22.04-16.23-25.74-1.53-1.43-9.22-3.79-11.34-6.03-1.06,5.82,4.58,13.61,4.75,17.92.23,5.84.47,18.41.04,24.04-.4,5.34-4.54,15-3.86,19.26.57,3.56,10.45,7.85.98,11.17,3.47,4.95,2.51,13.6,1.92,19.75-.59,6.17-3.41,12.64-3.88,17.36-.46,4.57,2.34,9.44.03,13.35-.35.6-1.9.58-1.98,1.25-.43,3.57,7.77,8.83,2.28,11.76-2.25,1.2-14.03,2.07-15.31.26l.54-11.64-3.84.97c-1.77-8.42,2.82-16.25,2.53-25.42-.09-2.81-1.65-5.86-1.65-8.84,0-7.44,2.82-11.37-1.18-19.5-.27-.56-2.04-.67-2.45-1.84-.86-2.43.12-8.05-.28-11.34-.89-7.37-2.97-14.65-4.71-21.83l-11.19,26.02c-.55,2.51.95,4.3.39,7-.51,2.46-3.67,3.92-3.67,4.2.05,4.43,1.24,10.76,1.06,15.38-.25,6.4-2.17,15.02-2.04,21.17.1,5.06,4.17,10.46,2.94,15.97h-3.87c.04,4.31-.33,8.63-5.03,10-2.16.63-12.64-.08-13.23-1.93-1.59-5,6.1-7,5.78-10.43-6.9-3.37-2.33-12.34-2.97-17.34-.22-1.73-1.61-3.14-1.86-4.98-1.28-9.7-3.82-21.89-.01-30.8l-2.02-1.87c5.76-9.52,2.23-20.42,2.93-30.96.73-11.09,3.67-20.7,3.87-32.79.03-1.6,1.12-3.35.97-4.82-.18-1.75-4.1-6.73-6.2-6.2-6.58,5.74-10.14,13.63-14.6,21.1-1.14,1.9-1.39,4.31-2.52,6.17-6.19,10.15-15.36,17.7-23.97,25.72l61.71-89.3c5.67-3.46,14.94-3.93,19.31,1.99l55.02,78.62h-.01Z"/>
    <path class="cls-9" d="M1259.01,295.97l-80.08-112.89c3.26.92,7.36-1.09,10.08-.94,5.41.32,19.05,15.21,22.55,19.92,8.89,11.98,8.98,21.22,15.78,32.47,11.51,19.07,24.28,32.51,30.66,55.22.57,2.03,1.15,4.07,1.02,6.21h-.01Z"/>
    <path class="cls-9" d="M1157.69,183.08l-79.11,112.89c-.64-7.43,3.7-11.29,6.64-16.98,6.44-12.46,13.42-25.66,21.5-37.37,2.61-3.79,5.94-6.1,8.68-10.62,5.87-9.68,6.58-21.15,12.55-28.95,6.08-7.94,19.02-21.18,29.74-18.98h0Z"/>
    <path class="cls-9" d="M1250.34,293.08l-1.46,4.81c-4.01-4.17-8.04-11.49-2.89-16.37l17.35,24.13-.94,3.81c-6.59-3.48-7.19-11.58-12.05-16.39h-.01Z"/>
    <path class="cls-9" d="M1090.86,295.7c-3.25,3.1-5.01.12-4.08-3.58-3.94,3.87-5.11,9.34-7.28,13.95-.67,1.43-.64,2.86-2.85,2.45l.75-6.48,17.1-24.39c.05,5.73,1.02,13.61-3.64,18.06h0Z"/>
  </g>
  <g class="cls-1">
    <g class="cls-5">
      <text class="cls-6" transform="translate(1049.58 320.12) rotate(-.18) scale(1.1 1)"><tspan x="0" y="0">X</tspan></text>
    </g>
  </g>
</svg>