<?xml version="1.0" encoding="UTF-8"?>
<svg xmlns="http://www.w3.org/2000/svg" viewBox="0 0 1009.71 284.74">
  <defs>
    <style>
      .cls-1 {
        font-size: 270.17px;
      }

      .cls-1, .cls-2, .cls-3, .cls-4, .cls-5, .cls-6 {
        opacity: .25;
      }

      .cls-1, .cls-2, .cls-3, .cls-5 {
        font-family: Movement-Regular, Movement;
        font-variation-settings: 'wght' 100, 'SPAC' 100;
      }

      .cls-1, .cls-2, .cls-3, .cls-5, .cls-6 {
        fill: #69c6b5;
      }

      .cls-2 {
        font-size: 337.31px;
      }

      .cls-3 {
        font-size: 268.23px;
      }

      .cls-7 {
        fill: #07382f;
      }

      .cls-8 {
        fill: #eb509c;
      }

      .cls-5 {
        font-size: 318.89px;
      }

      .cls-6 {
        font-family: Movement-IndirectThin, Movement;
        font-size: 273.49px;
        font-variation-settings: 'wght' 100, 'SPAC' 120;
        font-weight: 200;
      }
    </style>
  </defs>
  <g id="Layer_7" data-name="Layer 7">
    <g class="cls-4">
      <path class="cls-7" d="M117.47,156.54c5.65,5.5,11.73,10.62,17.05,16.48-6.29.18-4.09,4.91-5.1,9.09-2.39,9.94-9.71,11.54-17.77,15.36,4.67,4.58,16.28,7.85,19.72,12.61,1.61,2.22,3.79,11.66,4.23,14.77,1.02,7.26-1.66,7.96-5.82,2.39-.9-1.2-.85-3.78-2.35-4.13-4.74,12.86-5.04,26.7-6.32,40.22l-4.72-.78,5.08,3.98c3.96,1.17,7.37,1.96,6.67,6.98-1.56,2.27-13.4-1.05-16.21-1.45-1.38-.2-2.75.6-4.27.4-11.79-1.56-7.71-3.4-6.81-11.63.35-3.2.14-7.19.75-10.3.74-3.8,3.64-7.08,2.56-10.84-10.61,6.88-18.12,17.07-27.22,25.68h-1.55s-5.94-5.16-5.94-5.16c-.74-.01-3.8,8.44-3.59,9.82.44,2.88,3.94,2.04,5.55,3.97-1.45,3.69-7.86,4.58-11.02,3.14-5.72-2.61-6.46-20.74-5.93-26.42,5.75-2.71,10.26-6.89,15.43-10.59,1.3-.93,3.01-1.06,4.3-2,4.06-2.95,7.6-7.45,12.21-9.87-14.87-6.34-39.07-14.09-32.72-35.1,1.64-5.42,16.34-19.62,21.32-23.64,7.8-6.31,16.76-10.79,25.62-15.41-6.79-8.31-15.6-15.89-22.5-24.04-3.97-4.69-7.27-11.85-12.2-15.41-2.11-1.52-9.73-3.79-10.14-4.44-1.43-2.28,2.17-8.17,2.24-10.92l1.97.77c18.98,19,38.23,37.77,57.47,56.49Z"/>
      <path class="cls-7" d="M132.85,156.75c2.22-5.86,5.21-12.86,12.74-12.19l9.03,26.87c.02,5.53-6.11,6.91-10.25,8.85l-44.55-43.93c2.98,1.24,5.45,3.76,8.26,5.54,1.21.77,2.72.96,3.84,1.68,3.05,1.96,18.85,14.39,20.93,13.19Z"/>
      <path class="cls-7" d="M158.77,167.67c-.45.44-1.95,1.1-2.48.96l-8.35-24.4c9.92-.5,17.28,17.15,10.83,23.44Z"/>
      <path class="cls-7" d="M58.73,90.67l-.71,4.65-3.14-1.57c-.38,1.99,2.24,2.33,2.21,4.18-.01.92-2.15,5.91-2.99,5.28-.43-3.52-4.75-8.78-3.95-12.07.08-.35,2.7-1.17,1.58-3.7,3.95-1.02,3.52,3.31,7.01,3.24Z"/>
      <path class="cls-7" d="M63.87,96.58c1.7,2.37,4.07,4.59,3.61,8.21-3.69-3.91-10.64-6.7-7.08-12.62,1.61.89,2.4,2.91,3.47,4.41Z"/>
    </g>
    <g class="cls-4">
      <path class="cls-7" d="M301.93,239.89v-15.49c0-.35-3.53-4.43-3.84-5.77-.35-1.53.6-2.7.5-3.76-.1-1.01-1.73-16.27-3.8-14.69-1.73,4.55-4.2,8.28-4.61,13.35-.18,2.2.91,3.7.46,5.9-.4,1.93-2.92,3.17-2.99,3.55-1.13,5.69.4,11.93-.01,17.72-7.5.15-17.77-.62-23.59-5.82-1.22-1.09-2.41-3.9-3.81-5.32-7.32-7.43-14.27-14.97-19.42-24.2,1.77-6.54,5.19-13.16,9.15-18.62,5.73-7.9,10.21-16.51,17.03-24.28,13.58-15.48,32.49-18.32,49.18-5.53,4.07,3.12,16.62,21.49,19.45,26.63,2.17,3.94,7.85,16.95,7.66,20.98-.11,2.48-6.19,14.13-7.84,16.84-1.35,2.21-7.82,11.61-9.27,12.97-4.11,3.87-18.54,5.71-24.25,5.54ZM270.14,188.26c-2.69-1.81-9.12,9.46-10.7,11.13-1.61,1.69-4.89,3.02-5.06,3.27-1.67,2.61,3.52,8.03,4.79,10.47,3.05,5.84,4.95,12.57,10.97,16.43-.42-2.72.29-4.5,1.61-6.77-4.28-5.32-.48-3.45.61-5.31,1.21-2.07-1.68-12.85-1.89-16.26-.26-4.29,1.24-8.81-.33-12.96ZM318.62,231.16c7.96-6.72,7.53-18.48,13.37-26.76-4.09-5.4-9.05-9.02-11.01-16.13-2.41,1.19-.79,4.98-.91,6.7-.35,5.15-4.14,18.18-2.86,21.27.91,2.19,3.39,2.32,1.4,5.64-.34.57-1.6.49-1.56.9.26,2.34,3.41,4.91,1.57,8.38Z"/>
      <path class="cls-7" d="M320.2,239.11c.11,1.26-1.15.32-1.73,1.86-.87,2.3-.35,4.84-.84,7.08-.48,2.18-1.93,4.49-2.15,6.63-.32,3.08,1.52,6.9.64,9.35-.43,1.2-2.26,1.1-2.25,1.64.04,2.49,4.94,5.49,3.88,8.67-.99,2.97-11.49,2.02-14.16,2.02-.74-2.25-.59-3.53.72-5.47l-2.39-2,2.4-2.78-3.22-.36c-2.41-1.63,3.52-17.28,1.59-21.06l-5.13-.37-1.18-2.04,23.82-3.18Z"/>
      <path class="cls-7" d="M291.61,242.28v2.38s-3.98,0-3.98,0c-2.1,8.51,1,14.37,3.18,22.24h-4.77s0,10.34,0,10.34c-4.74-.51-11.14,1.78-14.19-2.89l3.87-6.23c-2.84-3.86-1.05-8.32-1.65-12.68s-3.71-9.48-2.33-14.74c6.51,1.58,13.17,1.79,19.86,1.59Z"/>
    </g>
    <g class="cls-4">
      <path class="cls-8" d="M435.37,55.35l1.76-2.82c6.79,5.15,1.86,8.15,1.18,12.56-.43,2.81,8.56,12.99,10.68,15.99,1.02,1.44,2.31,4.8,3.02,5.49,1.07,1.05,3.44.57,5.14,1.24,8.76,3.47,9.78,6.12,20.55,6.93,2.75.21,6.19-.72,8.32-.37,1.79.29,3.11,2.62,5.36,2.11.18-2.22-.14-4.39-1.04-6.43-.61-1.39-2.05-1.65-2.18-2.74-.04-.31.35-5.59.42-6.01.97-5.81,3.26-11.88,10.18-11.7,6.79.17,11.65,12.36,10.19,17.84-.32,1.18-5.38,8.03-1.55,8.97,1.93.47,10.17-3.99,12.84-4.03,2.15-.03,5.05,2.04,9.64,1.1,2.32-.48,3.58-2.48,5.32-3.19,2.43-1,10.59-2.72,11.92-3.68,1.03-.74,3.99-7.14,5.25-8.94,2.13-3.04,8.91-9.91,8.53-13.41-.11-1.04-1.28-1.95-1.48-3.57-.41-3.32.94-8.1,4.3-4.64,1.21-2.45,1.11-6.32,3.55-7.8-.68,4.03,1.43,8.65,1.42,12.41-.01,5.66-9.42,24.24-12.9,29.65-3.02,4.69-9.75,8.27-14.37,11.87-1.58,1.23-2.5,3.25-3.43,4.01-1.34,1.09-7.98,3.99-8.29,5-1.88,16.71,1.19,33.03-3.56,49.47-.83,2.86-2.78,4.03-2.87,8.52-.3,13.79.87,27.97-.66,41.85-.28,2.51-2,4.74-2.1,6.42-.16,2.68.86,7.13.71,10.63-.28,6.68-2.47,13.88-2.72,20.54-.12,3.2,2.59,8.4-1.58,9.94l2.84,4.25-11.01,3.1c-1.42-.84-.87-1.51-.32-2.74-2.09-.23-4.81.83-6.37-1.07,2.26-2.86,1.95,2.14,5.24-.28,2.36-1.74-1.15-3.33-1.33-3.61-2.32-3.65,1.91-34.01-.54-40.63-3.02-7.1-2.45-15.91-3.38-23.58-.13-1.05-.57-2.18-1.42-1.05l-1.58,18.66c-5.71,9.76-1.05,24.08-2.74,35.59l2.19,13.12-3.44.11-.83,2.37,2.51.32.33,3.58-14.89-1.42c.45-2.78,4.1-3.82,3.55-7.09l-2.77-.07c-1.54-5.61-.43-11.54-.79-17.3-.34-5.35-2.23-13.75-2.14-18.47.04-2.21,2.23-4.29,2-5.53-.16-.89-1.64-1.87-1.95-3.71-.95-5.71.68-13.16.35-18.96-.21-3.59-1.51-6.86-1.79-10.09-.35-3.95,1.01-9.12.71-11.99-.14-1.29-1.29-2.27-1.34-3.57s1.2-3.23,1.07-4.32c-.12-.96-2.06-1.68-2.43-2.95s-1.4-10.02-1.54-11.92c-.39-5.26,1.41-10.91.72-16.33-1.63-5.31.27-11.86-1.5-16.94-1.12-3.22-4.52-4.45-6.74-6.75-.86-.89-.79-2.42-1.47-2.93-1.11-.83-5.53-2.12-7.71-3.47-1.7-1.05-12.97-9.45-13.72-10.39-4.33-5.47-13.94-24-14.82-30.58-.56-4.21.91-11.4,1.27-15.78l4.26,9.21Z"/>
      <path class="cls-8" d="M519.76,265.3c-1.1,3.92-7.27,2.55-10.64,2.82-.17-1.02,1.25-.99,1.98-1.2,1.16-.33,8.25-1.94,8.66-1.63Z"/>
      <path class="cls-8" d="M427.56,56.07c.2-3.54-.91-8.67,2.11-11.35-1.23,3.45.59,8.98-2.11,11.35Z"/>
    </g>
    <g class="cls-4">
      <path class="cls-7" d="M718,145.67c3.49,5.18,10.21,13.8,11.65,19.84,1.39,5.83-1.63,9.55-5.42,13.83-1.31,1.48-5.73,4.68-5.8,5.83-.09,1.67,1.94,4,1.98,6.52.04,2.87-1.86,5.88-1.99,7.84-.18,2.78,1.34,8,1.3,10.98-.09,6.3-5.93,12.79,2.62,17.05.45,2.19-2.02,4.75-1.89,5.61.11.72,1.54,1.71,1.81,3.39,1.13,6.86.43,14.49.65,21.44.07,2.11,1.53,5.66.34,7.47-.33.5-1.65.47-1.66.99-.04,3.15,7.39,8.21-3.61,9.3-10.59,1.05-3.89-3.32-4.86-6.66-.23-.79-1.52-.89-1.92-1.5-2.15-3.27-.18-12.38-.64-16.04-.65-5.2-2.36-13.99-5.17-18.3-.44-.68-1.73-.7-2.17-1.75-.91-2.15-.62-8.81-1.38-12.21-.66-2.95-2.03-7-2.93-10.07-.28-.95.37-1.14-1.31-.95.53,4.43-1.79,8.77-2.56,12.7-.53,2.65.22,5.08-.86,8.24-.94,2.77-3.2,4.1-4.21,6.19-1.35,2.79-5.64,18.84-6,21.98-.55,4.78,5.33,11.77,0,12.93,1.6,1.65,2.82,3.81,2.6,6.17-3.8-.11-12.97.92-13.64-4.28-.18-1.41.51-2.44.48-3.34-.04-.98-1.08-1.71-1.17-3.07-.33-5.11.89-27.07,3.01-30.84.7-1.25,2.48-1.76,2.22-3.29l-2.48-1.63c.72-1.56,1.98-2.82,2.61-4.42,3.19-8.02.15-10.77-.1-18.34-.18-5.29,1.66-11.45.97-16.9-.06-.44-1.02-3.88-1.14-4.05-.23-.34-5.85-3.14-7.22-4.15-2.5-1.84-8.74-6.25-8.67-9.2.06-2.61,3.73-11.11,5.47-13.27,1.07-1.33,2.38-1.79,3.15-2.71,2.17-2.63,2.72-6.48,4.52-9.12,4.39-6.44,10.77-9.5,18.56-7.45l4.48,29.51c1.71.14,1.07.07,1.27-.99,1.98-10.65,2.93-21.55,5.23-32.15,6.51.9,10.33,3.58,13.88,8.86ZM678.77,174.49c.04-2.61.26-5.4-.97-7.79-3.27,3.02-2.41,5.33.97,7.79Z"/>
      <path class="cls-7" d="M702.81,136.16c-1.6,8.59-2.23,17.61-4.07,26.14-.14.63-.23,1.95-1.12,1.79l-3.26-24.68c1.65-.02,3.48.21,5.05-.43,1.84-.76.45-3.65,3.39-2.82Z"/>
    </g>
    <g class="cls-4">
      <path class="cls-7" d="M960.01,200.6c-2.02-1.48-4.04-3.42-5.61-5.37-3.75-4.66-9.63-17.3-12.74-20.2-1.2-1.12-7.24-2.98-8.9-4.73-.84,4.57,3.59,10.68,3.73,14.07.18,4.59.37,14.45.04,18.87-.31,4.19-3.56,11.78-3.03,15.12.45,2.8,8.2,6.16.77,8.77,2.73,3.89,1.97,10.68,1.51,15.5-.46,4.85-2.68,9.93-3.05,13.63-.36,3.59,1.84,7.41.03,10.48-.28.47-1.49.45-1.56.98-.34,2.81,6.1,6.93,1.79,9.23-1.77.94-11.02,1.63-12.02.2l.42-9.14-3.02.76c-1.39-6.61,2.21-12.76,1.99-19.96-.07-2.2-1.3-4.6-1.3-6.94,0-5.84,2.21-8.93-.93-15.31-.22-.44-1.6-.53-1.92-1.45-.67-1.91.1-6.32-.22-8.9-.7-5.79-2.34-11.5-3.7-17.14l-8.79,20.43c-.44,1.97.74,3.38.31,5.49-.4,1.93-2.88,3.08-2.88,3.3.04,3.48.97,8.45.83,12.07-.2,5.03-1.7,11.79-1.61,16.62.08,3.97,3.27,8.22,2.31,12.54h-3.04c.03,3.38-.26,6.78-3.95,7.85-1.7.49-9.92-.06-10.39-1.52-1.25-3.92,4.79-5.49,4.54-8.19-5.42-2.65-1.83-9.69-2.33-13.61-.17-1.36-1.27-2.47-1.46-3.91-1.01-7.62-3-17.19-.01-24.18l-1.59-1.47c4.52-7.47,1.75-16.03,2.3-24.3.57-8.71,2.88-16.25,3.04-25.74.02-1.26.88-2.63.76-3.78-.14-1.37-3.22-5.28-4.86-4.87-5.17,4.51-7.96,10.7-11.47,16.56-.89,1.49-1.09,3.39-1.98,4.84-4.86,7.97-12.06,13.9-18.81,20.19l48.45-70.1c4.45-2.72,11.73-3.09,15.16,1.56l43.19,61.72Z"/>
      <path class="cls-7" d="M979.71,224.84l-62.87-88.62c2.56.72,5.78-.86,7.91-.73,4.24.25,14.96,11.94,17.7,15.64,6.98,9.41,7.05,16.66,12.39,25.49,9.04,14.97,19.06,25.52,24.07,43.35.45,1.59.9,3.19.8,4.87Z"/>
      <path class="cls-7" d="M900.17,136.22l-62.11,88.62c-.5-5.83,2.9-8.86,5.21-13.33,5.06-9.78,10.53-20.15,16.88-29.33,2.05-2.97,4.67-4.79,6.82-8.33,4.61-7.6,5.16-16.6,9.85-22.72,4.77-6.23,14.93-16.63,23.35-14.9Z"/>
      <path class="cls-7" d="M972.91,222.57l-1.14,3.77c-3.15-3.27-6.31-9.02-2.27-12.85l13.62,18.95-.74,2.99c-5.17-2.73-5.64-9.09-9.46-12.86Z"/>
      <path class="cls-7" d="M847.7,224.63c-2.55,2.43-3.93.09-3.2-2.81-3.09,3.04-4.01,7.33-5.71,10.95-.53,1.12-.5,2.25-2.24,1.92l.59-5.09,13.43-19.15c.04,4.5.8,10.69-2.86,14.18Z"/>
    </g>
  </g>
  <g id="Layer_9" data-name="Layer 9">
    <text class="cls-3" transform="translate(0 156.22) rotate(13.2)"><tspan x="0" y="0">A</tspan></text>
    <text class="cls-1" transform="translate(186.02 238.85) rotate(-.18)"><tspan x="0" y="0">O</tspan></text>
    <text class="cls-2" transform="translate(403.35 265.26) rotate(-.18) scale(.85 1)"><tspan x="0" y="0">U</tspan></text>
    <text class="cls-6" transform="translate(576.88 221.21) rotate(-.18) scale(1.1 1)"><tspan x="0" y="0">M</tspan></text>
    <text class="cls-5" transform="translate(815.85 241.79) rotate(-.18) scale(1.1 1)"><tspan x="0" y="0">X</tspan></text>
  </g>
</svg>