<?xml version="1.0" encoding="UTF-8"?>
<svg id="Layer_9" data-name="Layer 9" xmlns="http://www.w3.org/2000/svg" viewBox="0 0 100.07 100.04">
  <defs>
    <style>
      .cls-1 {
        fill: #d6bda1;
      }

      .cls-2 {
        fill: #ccc8c4;
      }

      .cls-3, .cls-4 {
        fill: #231f20;
      }

      .cls-5 {
        stroke-width: .75px;
      }

      .cls-5, .cls-6, .cls-7 {
        fill: none;
      }

      .cls-5, .cls-6, .cls-7, .cls-4 {
        stroke-miterlimit: 10;
      }

      .cls-5, .cls-6, .cls-4 {
        stroke: #231f20;
      }

      .cls-6, .cls-7 {
        stroke-width: .5px;
      }

      .cls-8 {
        fill: #7b1226;
      }

      .cls-7 {
        stroke: #000;
      }

      .cls-4 {
        stroke-width: .25px;
      }
    </style>
  </defs>
  <path class="cls-1" d="M81.48,69.57c-1.33,4.57-12.09,5.14-14.58,5.23-.21.42-.54,1.01-.99,1.69-1.3,1.95-2.67,3.07-3.92,4.09-1.43,1.16-2.02,1.39-2.5,1.5-.66.16-1.15.12-2.09.04-.39-.03-2.06-.2-4.65-.97-.92-.27-1.5-.49-2.46-.55-.97-.06-1.59.08-1.79.13-.44.11-1.14.3-1.81.88-.18.15-1.15.98-1.3,2.24-.07.59.12.63.05,1.42-.03.36-.1,1.01-.48,1.69-.37.66-.86,1.03-1.14,1.24-1.62,1.19-3.59,1.03-3.87,1.01-.45-.04-.79-.13-2-.26-.46-.05-.84-.08-1.08-.1.04.58.02,1.4-.22,2.33-.21.81-.5,1.33-.9,2.05-.49.88-.72,1.04-.93,1.12-.47.17-.93-.05-1.3-.22-.21-.1-1.46-.67-1.86-1.99-.2-.64-.08-1.23.14-2.41.27-1.4.53-1.51.5-2.31-.03-.84-.33-1.11-.6-2.08-.19-.67-.36-1.65-.22-2.93-.52.73-1.36,1.12-2.18,1-.05,0-1.13-.19-1.47-1-.18-.44,0-1.07.38-2.34.22-.76.42-1.26.21-1.84-.09-.25-.23-.43-.33-.55-.47,1.13-.98,2.02-1.38,2.65-1,1.56-1.84,2.88-3.2,3.18-.34.07-.52.04-.82.21-.69.37-.72,1.03-1.31,2.16-.52.99-.82,1.55-1.46,1.86-.48.23-1.03.18-2.14.09-.8-.07-1.08-.19-1.28-.4-.06-.06-.26-.29-.36-.91-.09-.59,0-.96.19-2.02.25-1.4.24-1.61.19-1.85-.05-.24-.21-.93-.81-1.28-.52-.3-1.1-.19-1.18-.17-.28.06-.36.17-.69.25-.1.02-.73.17-1.07-.03-.48-.3-.21-1.24-.07-3.66.08-1.46,0-1.37.1-1.96.21-1.2.57-1.54.67-2.73.06-.67.1-1.2-.2-1.71-.38-.67-1.08-.91-1.56-1.09,0,0-1.34-.52-3.82-2.15-1.39-.91-2.6-1.72-3.11-3.17-.41-1.18-.17-2.23.15-3.64.3-1.3.77-2.3,1.7-4.24,1.18-2.47,1.84-3.41,2.05-5.18.05-.45.11-1,.01-1.71-.16-1.13-.54-1.39-.96-2.9-.21-.75-.36-1.32-.35-2.11,0-.3.04-1.13.42-2.1.11-.29.45-1.13,1.13-1.85,1.01-1.06,2.31-1.34,2.78-1.46,3.03-.75,5.48-2.88,6.63-3.47,4.14-2.12,23.3-.72,49.93,18.76,13.79,10.08,13.59,13.32,13.24,14.54Z"/>
  <path class="cls-8" d="M85.13,26.68c.49,1.03,1.27,1.58,1.59,1.82,1.45,1.1,2.15,2.46,3.49,5.05,1.14,2.21,1.46,4.13,2.11,7.97.45,2.66.51,4.39-.04,6.28-.16.54-.33.97-.45,1.26.07.15.18.37.32.63.38.67.75,1.11.88,1.27.73.89,1.25,1.97,1.62,2.74.61,1.26.9,2.25.96,2.5.35,1.26.57,2.08.24,2.98-.21.57-.54.92-.92,1.3-.47.48-1.13,1.01-3.48,2.08-1.18.54-2.14.91-3.03,1.73-.22.21-.58.56-.72,1.11-.14.54,0,.98.09,1.36,0,0,.26,1.15-.06,2.77-.35,1.75-1.6,2.87-1.93,3.17-.48.42-1.53,1.34-3.12,1.46-2.16.16-3.68-1.27-3.94-1.53-.1-.15-.21-.36-.16-.58.09-.39.63-.51,1.14-.77.76-.37,1.51-1.06,1.75-1.7.14-.37.21-1.02-.74-2.65-1.01-1.73-2.12-2.79-2.94-3.59-2.44-2.39-2.34-2.56-3.75-3.88-.95-.89-4.06-3.69-10.81-7.4-6.61-3.63-12.34-5.72-15.5-6.88-5.01-1.83-7.51-2.74-8.32-2.99-.6-.18-1.69-.51-3.13-1.11-1.77-.75-2.29-1.18-4.02-2.04-1.31-.65-2.99-1.49-5.24-2.12-2.2-.61-3.87-.72-5.23-.79-2.79-.16-3.74.21-4.26.46-.62.31-.45.37-1.91,1.31-1.69,1.08-2.78,1.54-3.17,1.7-1.15.47-1.73.7-2.39.62-1.55-.19-2.42-1.58-2.5-1.71-.49-.82-.52-1.61-.52-2.06,0-.23-.03-1.55.85-2.76.33-.45.74-.82,1.14-1.18.77-.69,1.08-.8,1.68-1.28.31-.25,1.3-1.06,2.01-2.38.6-1.1.77-2.13.85-2.67.18-1.17,0-1.46.27-2.57.16-.67.31-1.28.74-1.9.7-1.01,1.72-1.4,3.13-1.95.6-.23,1.47-.52,2.56-.73.19-.27.47-.64.9-1,.51-.43.98-.64,1.12-.7.31-.14.77-.29,1.72-.37.94-.08,1.58-.02,2.01,0,1.14.04,1.96-.16,3.29-.5,2.62-.65,4.5-1.86,5.9-2.77,1.91-1.25,2.87-1.87,3.71-3.02.4-.54.86-1.31,1.82-2.31.44-.45.94-.98,1.61-1.41.24-.13.56-.3.96-.46.41-.17,1.16-.48,2.19-.62.41-.06,1.03-.14,1.84-.04.34.04.9.11,1.58.41.67.29,1.11.65,1.38.88.59.49.73.77,1.3,1.4,0,0,.78.86,1.64,1.51.78.59,1.52.89,2.99,1.46.99.39,1.87.74,3.13,1.08,1.25.34,2.88.77,5.01.81,1.33.02,2.27.04,3.51-.24.8-.18,1.37-.41,2.31-.36.86.04,1.46.29,1.95.47,0,0,1.69.64,4.33,1.34,2.17.58,4.08.68,4.72.71,1.54.06,2.46-.07,4,.37,1.21.34,1.73.73,2.05,1.04.92.89,1.11,2,1.15,2.3.06.37.18,1.28-.26,2.2-.42.87-1.18,1.42-2.12,2.1-.72.52-.88.51-1.08.84-.6.99.05,2.35.15,2.57Z"/>
  <path class="cls-2" d="M52.23,41.52c-2.02.03-3.56-.31-4.58-.62-2.05-.62-2.68-1.32-5.3-2.01-1.2-.32-1.16-.19-2.85-.61-.85-.21-1.57-.42-4.16-1.26-3.59-1.16-3.77-1.27-4.66-1.46-1.69-.36-3.1-.43-4.02-.43-.13-1.77-.12-3.92.25-6.32.17-1.11.4-2.13.65-3.05.62-.1,1.55-.2,2.64-.09,1.58.15,2.61.64,3.68,1.06,1.45.58,3.02.98,6.16,1.79,3.15.81,3.77.76,5.5,1.53,1.12.49,1.3.71,2.51,1.16,1.94.73,2.9,1.09,4.12,1.18.56.04,1.17.03,1.8.44.12.08.69.46.98,1.16.55,1.3-.28,2.78-.69,3.53-.68,1.22-1.29,1.51-1.76,2.89-.16.46-.23.86-.27,1.12Z"/>
  <path class="cls-6" d="M66.9,74.8c1.28-.03,2.38-.12,3.25-.22.89-.1,1.95-.21,3.33-.51.9-.19,1.77-.38,2.58-.7.27-.11.73-.31,1.31-.49.22-.07.44-.17.66-.23.28-.07.45-.08.53-.21.09-.14-.02-.23.02-.42.05-.21.24-.33.89-.64.62-.3.56-.25.76-.36.33-.19.68-.38.95-.78.05-.07.26-.38.34-.85.02-.12.08-.51-.08-1.1-.16-.61-.45-1.03-.7-1.38-1.04-1.47-1.48-1.97-1.48-1.97-1.22-1.41-2.08-2.25-2.08-2.25-3.59-3.53-3.31-3.68-5.25-5.3-1.68-1.42-3.13-2.35-3.83-2.78-1.36-.85-2.45-1.38-3.16-1.72-4.79-2.33-7.19-3.49-9.58-4.55,0,0-3.75-1.65-8.98-3.69-1.05-.41-1.8-.69-2.58-.97-1.32-.47-2.51-.85-3.22-1.08-1.31-.42-1.33-.41-2.14-.68-1.08-.37-1.75-.6-2.6-.98-.27-.12-.51-.24-2.06-1.08-1.85-1-1.81-.99-2.2-1.19-1.89-.97-3.53-1.45-4.55-1.74-.79-.23-1.84-.52-3.28-.72-1.53-.21-2.56-.18-3.66-.15-.83.02-1.38.08-2.01.3-.59.21-1.04.5-1.36.7-.75.48-.74.63-1.5,1.12-.17.11-.58.32-1.4.76-.83.44-1.08.55-1.36.66-.52.2-.9.29-1.1.34-.31.08-2.14.6-3.17,2.04-.73,1.02-.77,2.13-.81,2.77-.06.99.16,1.74.58,3.23.42,1.51.57,1.47.69,2.19.09.51.2,1.58-.69,4.04-.76,2.1-1.09,2-2.19,4.62-.82,1.94-1.1,3.07-1.15,4.27-.04.82-.07,1.59.35,2.42.48.97,1.31,1.55,2.08,2.08.17.12.66.39,1.64.93,1.08.6,2.15,1.23,3.23,1.84,0,0,.26.15.87.59.25.18.35.27.46.41.19.27.23.55.26.74.04.3.02.56-.07.98-.08.42-.15.65-.33,1.28-.27.99-.32,1.2-.35,1.45-.01.1-.03.27-.04.85-.02.92,0,1.05,0,1.8,0,.6-.04,1.3-.04,1.93,0,.74.03.4.02.63,0,.2-.03.31.04.41.08.12.22.15.35.17.24.05.45,0,.5-.02.2-.06.19-.13.43-.24.19-.08.35-.11.48-.13.77-.11,1.18.17,1.18.17.37.24.54.68.61.84.06.15.14.28.2.43.05.12.07.2.14.24.12.07.29-.01.33-.03.12-.06.18-.15.31-.34.21-.34.26-.45.26-.45s.16-.36.73-1.49c.43-.86.74-1.48,1.39-1.73.42-.16.82-.1,1.05-.07.67.1,1.11.45,1.34.64.23.19.88.72,1.07,1.61.18.85-.14,1.63-.16,1.68-.18.42-.43.72-.32.86.02.03.1.1.52,0,.35-.08.65-.15,1.07-.45,1.49-1.08,2.59-2.98,2.59-2.98.5-.87,1.02-1.76,1.34-3.11.35-1.46.28-2.71.18-3.5.06,1.89.07,3.42.09,4.45,0,.42.02,1.33-.23,2.09-.06.19-.11.34-.2.64-.25.78-.26.86-.27.98-.02.2-.05.61.2,1,.23.35.57.49.77.57.66.26,1.25.09,1.39.05.59-.19.93-.59,1.14-.84,1.13-1.38,1.14-3.78,1.14-4.23-.39,2.34-.68,4.11-.85,5.08-.04.23-.13.74-.08,1.4.05.59.19,1.04.25,1.23.07.2.28.81.66,1.27.22.26.59.59,2.52,1.09.35.09,1.13.28,2.77.57,1.28.22,1.92.33,2.32.34.79.02,2.04.04,3.34-.66,0,0,1.08-.58,1.82-1.64.27-.38.34-.65.36-.82.03-.16.01-.23-.02-.82-.03-.51-.05-.77-.05-.93,0-.45.08-.84.14-1.05.24-.91.92-1.48,1.16-1.68.96-.81,2.05-.94,2.61-1,1.13-.12,2.1.13,4.02.64.4.11.93.26,1.79.45,1.07.25,1.57.32,1.73.34.79.11,1.27.18,1.84.12.17-.02.87-.1,2.02-.69.37-.19,1.69-.9,3.27-2.59.76-.82,1.23-1.49,1.7-2.15.61-.86,1.76-2.61,2.76-5.06.28-.67.48-1.24.61-1.62"/>
  <path class="cls-6" d="M16.73,82.91c-.18.65-.32,1.19-.42,1.59-.06.24-.11.46-.2.9-.13.58-.15.72-.14.92,0,.22.02.54.22.83.23.33.58.44.94.56.5.15.88.14,1.56.11.73-.03,1.09-.05,1.42-.25.13-.08.29-.21.67-.75.44-.64.7-1.16.86-1.47.22-.42.54-1.04.99-1.78"/>
  <path class="cls-3" d="M8.96,60.94c1.63,1.35,3.59,1.7,5.44,2.59,1.88,1.06,2.89,3.46,2.12,5.49.12-2.01-.78-3.86-2.5-4.85-1.79-.85-3.89-1.49-5.06-3.23h0Z"/>
  <path class="cls-3" d="M48.99,75.64c2.4,1.21,5.08,1.65,7.71,1.26,1.96-.34,3.72-1.39,5.42-2.36.6-.32,1.18-.66,1.8-.96-2.12,1.69-4.35,3.57-7.09,4.07-2.76.39-5.66-.24-7.83-2h0Z"/>
  <path class="cls-3" d="M69.01,55.12c-.56.69-.58,1.65-.46,2.45.14.69.71,1.02,1,1.73.2.79-.23,1.52-.74,2.08-.7.97-1.49,2.64-1.75,3.47-.03.07-.06.18-.08.26-.11.58-.43,1.33.35,1.6.74.29,1.61-.11,2.18-.64-.59.94-2.05,1.58-2.97.67-.52-.51-.18-1.86-.11-2.11.41-1.41,1.07-2.81,2.03-3.96.29-.31.54-.77.46-1.21-.22-.52-.75-1.13-.81-1.81-.05-.93.16-1.94.89-2.53h0Z"/>
  <g>
    <path class="cls-3" d="M18.32,59.84c-.82.03-2.42-.04-4.14-.92-1.65-.84-2.56-2-2.79-2.31-.98-1.29-1.28-2.54-1.45-3.27-.11-.46-.46-2.13-.04-4.35.2-1.04,1.19-6.26,5.28-7.74,1.86-.67,3.57-.29,4.09-.15,2.15.57,3.37,2,3.83,2.57,1.46,1.77,1.73,3.67,1.9,4.84.22,1.51.08,2.71,0,3.36-.21,1.69-.71,3.12-1.04,3.82-1.9,3.99-8.53,4.87-8.89,4.91"/>
    <path class="cls-3" d="M18.32,59.84c-5.25.42-9.34-4.24-8.89-9.38.24-6.69,5.71-12.93,12.37-8.53,4.16,3.08,4.36,9.16,2.49,13.59-1.63,3.44-5.77,4.62-9.23,5.08,3.36-.68,7.29-1.93,8.79-5.27,2.14-5.08.81-13.27-5.63-14.04-5.14-.74-7.91,4.8-8.22,9.2-.57,4.93,3.26,9.46,8.31,9.35h0Z"/>
  </g>
  <path class="cls-3" d="M27.72,55.51c-1.12,1.92-1.64,2.45-3.3,5.32-.38.65-.97,1.68-1.15,2.94-.06.4-.11,1.02-.15,1.53,0,0-.04.56-.04,1.41,0,.64.04.86.19,1.08.19.28.47.41.63.48.13.06.52.23,1,.15.41-.07.68-.28,1.08-.6.25-.2.43-.38.56-.52.03.17.07.43.11.74.1.73.1.86.19,1.08.17.44.46.7.63.86.52.47,1.09.61,1.38.67.88.2,1.59,0,1.93-.11.41-.12.88-.26,1.3-.67.37-.35.54-.74.86-1.49.16-.38.29-.67.37-1.04.22-.94.01-1.74-.07-2.08-.36-1.45-.47-2.95-.71-4.43-.32-1.93-.26-2.18-.63-4.28-.02-.09-.25-1.35-.82-2.94-.58-1.62-.84-1.7-.93-1.71-.6-.1-1.07,1.28-2.43,3.61Z"/>
  <path class="cls-3" d="M45.07,44.14c-1.27.49-4.29,1.86-6.61,5.1-2.47,3.46-2.64,6.98-2.68,8.27-.03.98-.07,2.53.5,4.42.92,3.02,2.82,4.93,3.97,6.09,1.02,1.03,1.82,1.58,2.12,1.79,1.51,1.01,2.85,1.45,3.24,1.57.5.15,2.8.82,5.76.28,2.13-.39,3.6-1.22,4.58-1.79,1.18-.68,3.57-2.1,5.37-4.98,1.29-2.06,1.71-3.95,1.84-4.7.32-1.72.21-3.08.17-3.52-.13-1.35-.46-2.34-.56-2.63-.47-1.35-1.13-2.41-1.73-3.19"/>
  <path class="cls-3" d="M41.87,69.29c1.3,1.21,2.45,2.66,4.29,2.92-1.93.48-3.6-1.3-4.29-2.92h0Z"/>
  <path class="cls-5" d="M78.57,72.45c.22.24.56.55,1.04.83.65.38,1.22.5,1.57.57.48.1,1.42.27,2.55-.03,1.38-.37,2.2-1.23,2.55-1.6.32-.34,1.31-1.44,1.51-3.02.19-1.5-.03-2.86-.03-2.86-.06-.38-.16-.85.06-1.35.17-.38.45-.6.91-.91.98-.66,1.84-1.08,2.33-1.32,1.44-.7,1.52-.72,2.05-1.01,0,0,.84-.46,1.82-1.26.35-.28.55-.48.69-.79.18-.4.15-.75.09-1.29-.19-2.06-.17-1.94-.19-2.05-.21-1.06-.6-1.88-1.1-2.83-.98-1.85-1.64-3.08-2.87-4.57-1.53-1.86-2.98-2.95-4.54-4.12-1.63-1.21-1.8-1.12-5.35-3.46-2.18-1.43-2.02-1.4-3.79-2.56-1.72-1.12-3.65-2.37-6.3-3.79-3.07-1.64-5.48-2.63-6.11-2.89-2.01-.82-1.84-.62-3.55-1.33-2.82-1.16-3.28-1.7-7.29-3.64-2.2-1.07-3.72-1.72-4.26-1.94-1.89-.79-3.42-1.35-4.83-1.8-.19-.06-2.18-.69-4.07-.99-.58-.09-.97-.13-1.18-.14-1.03-.08-1.34.03-2.08,0-.82-.03-1.41-.19-2.6-.52-.84-.23-1.34-.42-2.04-.66,0,0-1.41-.49-3.64-1.14-.98-.28-3.46-.98-6.58-.99-1.73,0-3.7,0-5.92.99-.86.38-2.63,1.19-3.27,2.7-.44,1.04-.47,1.99-.47,1.99-.01.45.04.65,0,1.18-.06.71-.22,1.23-.33,1.56-.48,1.46-1.3,2.49-1.47,2.7-.82,1.01-1.86,1.8-2.37,2.18-.48.36-.88.62-1.33,1.18-.48.6-.71,1.17-.8,1.42-.17.47-.46,1.24-.28,2.22.18,1.02.75,1.68.95,1.89.96,1.03,2.19,1.17,2.5,1.19"/>
  <path class="cls-5" d="M23.36,18.99c-.94.41-2.45,1.13-3.88,2.13-.65.46-1.19.9-1.56,1.61-.19.36-.29.7-.43,1.14-.28.92-.25,1.28-.43,1.89-.19.68-.48,1.12-.95,1.85-.53.82-1.03,1.41-2.98,3.55-1.2,1.31-1.44,1.55-1.75,2.13-.51.93-.68,1.75-.8,2.37-.19.95-.38,2.54,0,4.55"/>
  <path class="cls-5" d="M28.28,19.79c-.74.47-1.34.89-1.8,1.23-.51.37-1.2.91-1.99,1.61-.98.87-1.19,1.19-1.28,1.33-.38.59-.53,1.14-.66,1.61-.21.74-.14.91-.33,1.8-.13.62-.26,1.24-.57,1.89-.38.81-.86,1.31-1.56,2.04-.94.97-1.32,1.07-1.8,1.89-.06.1-.32.56-.52,1.23-.26.89-.26,1.67-.22,2.16"/>
  <path class="cls-5" d="M55.03,34.37c-.04-.33-.13-.98-.62-1.33-.17-.12-.31-.16-.62-.24-2.09-.55-1.02-.31-1.61-.43,0,0-.84-.17-2.27-.57-.39-.11-1.49-.43-2.79-.99-1.36-.59-1.34-.75-2.51-1.18-.17-.06-.97-.36-2.08-.62-.85-.2-1.01-.17-1.94-.38-.62-.13-1.03-.25-2.13-.57-1.69-.49-2.54-.73-2.93-.85-3.76-1.15-4.39-1.57-6.01-1.61-.83-.02-1.51.07-1.94.14-.33,1.2-.63,2.62-.8,4.21-.22,1.96-.2,3.71-.09,5.16.62,0,1.59.03,2.75.19,3.08.41,4.07,1.23,7.72,2.37,4.07,1.27,4.04.61,6.91,1.8,1.43.59,2.47,1.18,4.35,1.61,1.58.36,2.93.43,3.83.43.02-.22.07-.56.19-.95.2-.63.49-1.03.8-1.51.52-.79.83-1.25,1.09-1.75.34-.66.86-1.7.71-2.93ZM39.09,32.6s-.02.05-.04.07c-.01,0-.02.02-.03.03-.01,0-.03.01-.05.01-.01,0-.03.01-.04.02,0,0,0,0-.01,0-.02,0-.04,0-.05,0-.02,0-.04,0-.06,0,0,0-.02,0-.02,0-.11,0-.22,0-.32-.04-.03-.01-.06-.02-.1-.04-.02,0-.03,0-.05-.01-.02,0-.03-.01-.05-.02-.03,0-.06-.02-.08-.02-.02,0-.04-.01-.06-.03-.05-.02-.1-.04-.15-.05-.06-.01-.12-.03-.17-.05-.03,0-.06-.02-.09-.02-.02,0-.03,0-.05,0,0,0,0,0,0,0,0,0,0,0,0,0-.03,0-.05,0-.08-.01-.07,0-.13-.02-.2-.03-.12-.02-.24-.06-.34-.12-.26-.17-.33-.55-.09-.77.15-.13.34-.14.51-.05.06.03.11.06.16.1.01,0,.03.01.04.02.16.06.33.12.49.19.18.04.36.11.52.21.16.1.33.23.38.42,0,0,0,.01,0,.02,0,0,0,0,0,0,0,.02.02.03.02.05,0,0,0,0,0,0,.02.03.02.05.02.08,0,.01,0,.03,0,.04Z"/>
  <path class="cls-5" d="M33.58,21.12c-.18.56-.4.97-.57,1.23-.41.65-1,1.23-1.37,1.61-.32.32-.5.47-.71.8-.23.36-.34.71-.4.95"/>
  <path class="cls-5" d="M26.67,35.13c-.16.18-.38.47-.52.9-.08.23-.11.44-.12.61"/>
  <path class="cls-5" d="M42.89,22.72c-.23.76-.54,1.28-.79,1.62-.44.6-.77.75-1.18,1.47-.16.28-.26.55-.47,1.09-.26.66-.44,1.21-.55,1.59"/>
  <path class="cls-5" d="M35.29,37.07c-.02.3-.08.68-.24,1.09-.34.89-.94,1.44-1.26,1.69"/>
  <path class="cls-5" d="M49.76,24.98c-.35.43-.61.83-.8,1.16,0,0-.42.75-.66,1.47-.22.64-.14.69-.33,1.04-.2.36-.59.81-.66.9-.18.21-.39.54-.54,1.05"/>
  <path class="cls-5" d="M43.45,39.25c-.02.2-.06.5-.21.83-.06.14-.14.3-.56.87-.49.66-.52.64-.61.82-.13.26-.24.66-.14,1.27"/>
  <path class="cls-5" d="M50.28,41.41c-.03.14-.08.34-.2.57-.12.23-.24.34-.49.62-.1.11-.39.44-.64.77-.28.38-.43.57-.54.86-.08.21-.18.56-.16,1.03"/>
  <path class="cls-5" d="M56.51,28.11c-.18.11-.41.28-.57.57-.11.2-.12.33-.24.79-.1.36-.17.63-.26.86-.19.45-.44.64-.74.98-.27.31-.62.79-.9,1.51"/>
  <path class="cls-5" d="M60.65,30.37c-.15.5-.4,1.26-.71,2.19-.43,1.26-.52,1.39-1.02,2.81-.77,2.16-.71,2.26-1.12,3.1-.27.55-.28.5-1.12,2.05-.54,1.01-.82,1.51-1,1.91-.34.72-.87,1.86-1.24,3.38-.2.82-.29,1.51-.34,1.98"/>
  <path class="cls-5" d="M65.66,32.42c-.05.41-.13.98-.26,1.64-.29,1.51-.63,2.63-.98,3.72-.49,1.56-.95,2.72-1.1,3.1-.41,1.03-.48,1.08-1.33,3.05-.75,1.73-1.13,2.61-1.38,3.41-.4,1.27-.58,2.36-.67,3.12"/>
  <path class="cls-5" d="M72.59,35.58c.03.43.05,1,.01,1.68-.02.42-.06,1.17-.25,1.97-.09.38-.24.91-1.08,2.62-.82,1.67-.89,1.6-1.45,2.8-.27.59-.25.59-1.08,2.55-.51,1.21-.76,1.81-.89,2.09-.44.95-1.18,2.28-2.48,3.8"/>
  <path class="cls-5" d="M79.15,39.66c-.18.41-.46,1.03-.8,1.77-.64,1.41-.89,1.91-1.35,2.93-.58,1.27-.95,2.09-1.39,3.19-.65,1.63-1.06,2.95-1.34,3.83-.59,1.88-.88,2.82-.92,3.14-.02.19-.08.85-.42,1.53-.17.35-.39.65-.42.69-.2.27-.4.48-.56.64"/>
  <path class="cls-5" d="M84.81,43.37c-.12.26-.29.65-.51,1.12-.73,1.61-1.1,2.41-1.39,2.96-.15.29-.58.98-1.43,2.35-.86,1.4-.91,1.44-1.16,1.9-.39.7-.78,1.42-1.16,2.42-.24.64-.39,1.16-.81,2.07-.18.39-.32.65-.38.76-.44.82-.66,1.23-1.09,1.64-.6.58-1.24.8-1.4.85-.53.17-1,.19-1.3.17"/>
  <path class="cls-5" d="M90.66,47.92c-.09.36-.23.86-.42,1.45-.33,1.03-.58,1.81-1.06,2.73-.27.52-.67,1.26-1.4,2.06-.86.95-1.8,1.56-1.92,1.63-.55.35-.89.48-1.46.98-.31.27-.62.54-.9.98-.32.51-.36.88-.56,1.59-.2.71-.4,1.19-.69,1.9-.22.54-.71,1.64-1.54,2.9-.38.58-.73,1.04-1,1.36"/>
  <path class="cls-5" d="M93.75,52.35c-.18.21-.42.52-.69.9-.4.56-.66,1-.95,1.49-.5.84-.55,1.02-1.08,1.9-.34.57-.51.85-.64,1-.32.36-.6.53-1.9,1.21-1.14.59-1.43.73-1.98,1.08-.78.5-1.03.77-1.21,1-.25.34-.37.66-.59,1.28-.23.64-.23.82-.51,1.8-.26.93-.4,1.4-.62,1.82-.16.31-.42.82-.95,1.33-.47.46-.94.72-1.26.88"/>
  <path class="cls-3" d="M81.52,68.64c.72.38,1.19.99,1.37,1.78-.72-.38-1.19-.99-1.37-1.78h0Z"/>
  <path class="cls-5" d="M20.21,19.17c.18-.3.49-.75.99-1.15.19-.15.86-.65,2.51-.92.95-.16,1.32-.09,2.34-.16,0,0,1.39-.08,3.16-.47,2.49-.54,4.4-1.77,5.56-2.53,1.19-.78,3.14-2.07,4.97-4.31.85-1.04,1.45-2.02,2.87-2.83.25-.14,1.21-.67,2.59-.9.78-.13,2.22-.36,3.74.31.85.38,1.43.91,1.75,1.21.76.71.82,1.06,1.52,1.75.59.58,1.1.87,2.07,1.42,1.5.85,2.79,1.31,3.3,1.48,1.62.55,2.86.71,4.35.92,1.51.21,3.45.47,5.17.21.52-.08.89-.12,1.62-.21,1.32-.17,1.57-.17,1.85-.16.34.02.67.08,1.77.41,1.08.33,1.86.61,2.13.7,1.71.6,3.16.84,3.94.97,1.09.18,1.92.23,3.57.33,2.04.12,2.72.06,3.82.51,1.19.49,1.69,1.09,1.85,1.31.5.66.63,1.33.7,1.72.08.45.29,1.53-.27,2.59-.37.71-.94,1.14-1.17,1.31-.58.43-.86.41-1.38.92-.27.26-.57.56-.72,1.05-.17.56-.05,1.06,0,1.27.1.38.25.64.33.76.76,1.22,1.84,2.19,1.84,2.19.85.76,1.31,1.47,2.24,2.89.94,1.43,1.32,2.62,1.89,4.37.29.9.51,1.74.68,2.51.35,1.57.47,2.76.58,3.89.05.51.09.95.09,1.48,0,.54-.02.93-.05,1.46-.08,1.38-.15,1.1-.17,1.87-.01.69.04,1.12-.27,1.41-.14.13-.29.18-.41.21"/>
  <path class="cls-4" d="M30.55,28.36c1.36.49,2.72.98,4.08,1.47-.16.24-.25.41-.31.53,0,.02-.07.14-.18.25-.07.07-.12.09-.16.09-.06.01-.15,0-.21-.06-.05-.06-.03-.12-.03-.4,0-.19-.01-.23-.02-.26-.01-.03-.05-.12-.18-.23-.09-.07-.16-.11-.47-.22-.39-.14-.46-.15-.53-.14-.06,0-.2.01-.33.1-.11.07-.16.16-.26.34-.13.25-.06.24-.21.59-.03.06-.07.16-.05.28,0,.04.02.1.07.15.04.04.08.04.26.07.1.02.11.02.26.05.11.02.15.02.21.01.03,0,.1-.02.13-.08.02-.03.02-.05.02-.18,0-.14,0-.18.01-.21.01-.06.03-.1.04-.13h.43l-.19,1.27c-.21-.07-.38-.13-.49-.17-.15-.05-.3-.09-.44-.15-.14-.06-.25-.12-.37-.08-.05.02-.09.05-.11.08,0,.49,0,.99,0,1.48.04.03.1.07.17.13.19.15.21.21.33.29.11.08.21.11.37.17.14.05.25.07.45.1.35.06.4.03.42,0,.04-.05.03-.12,0-.17-.03-.06-.09-.06-.22-.11,0,0-.12-.05-.26-.12-.11-.06-.19-.11-.26-.19-.04-.05-.11-.14-.12-.26,0-.19.17-.32.21-.35.09-.06.21-.12.57-.12.43,0,.62,0,.76.07.07.03.13.07.13.07.09.06.19.12.24.22.07.12.04.24.03.33-.03.2-.14.33-.25.47-.15.19-.32.32-.38.37-.45.31-1.29.06-1.62-.05-.7-.22-1.56-.51-2.53-.9.05-.16.08-.29.09-.38,0-.05.02-.12.07-.15.05-.03.1,0,.12,0,.05.02.07.04.12.08.06.04.08.04.17.08.05.02.12.06.2.13.22-1.23.43-2.45.65-3.68,0-.02-.02-.06-.04-.09-.02-.03-.05-.05-.11-.08-.12-.06-.19-.03-.23-.07-.03-.03-.05-.09,0-.24Z"/>
  <path class="cls-4" d="M39.37,33.53c.35-.02.53-.03.65-.11.23-.16.3-.44.35-.65.04-.16.09-.35.01-.58-.07-.21-.2-.33-.26-.39-.23-.21-.49-.26-.7-.31,0,0-.52-.12-1.28-.35-.54-.17-.8-.27-1.13-.48-.38-.24-.64-.51-.81-.71-.04.03-.1.07-.16.14-.06.07-.14.16-.13.27,0,.08.06.13.1.18.02.03.07.08.15.11.07.03.11.02.14.06.03.04.03.09.03.12-.19.3-.34.56-.45.75,0,0-.71,1.23-.87,1.79-.03.11-.05.15-.08.25-.02.06-.04.13-.08.22-.08.19-.11.21-.12.22-.05.04-.11.04-.2.05-.09,0-.11-.01-.23,0-.19,0-.22.04-.22.05-.01.03-.01.07,0,.08,0,.03.01.05.02.07l2.03.58c.02-.16.03-.3.05-.41.03-.21.05-.35.09-.54.03-.11.02-.08.08-.3.07-.26.1-.39.11-.43.03-.16.02-.22.07-.26.06-.06.17-.06.24-.03.12.05.16.18.2.27.04.13.04.23.03.53-.01.29-.02.44-.03.51-.02.21-.03.32-.04.56-.01.18-.02.27,0,.31.07.26.37.4.61.5.28.12.51.16.7.19.41.06.72.03.9.01.32-.03.45-.09.51-.11.09-.04.26-.11.41-.28.05-.06.21-.24.24-.5.01-.11.04-.29-.08-.42-.06-.07-.14-.09-.26-.11-.28-.05-.51-.09-.81,0-.17.05-.6.16-.64.43-.02.11.03.23.1.31.08.08.17.1.27.12.07.02.18.04.31.02.07-.01.13-.03.2,0,.06.02.09.05.09.06.03.04.05.1.03.14-.02.04-.06.06-.18.08-.14.02-.24.01-.34,0-.16,0-.28-.01-.43,0-.1,0-.2.02-.29-.03-.03-.02-.05-.04-.09-.07-.11-.1-.16-.2-.17-.23-.02-.05-.06-.13-.06-.23,0-.09.02-.16.05-.25.05-.14.07-.15.13-.29.05-.13.09-.22.08-.34-.01-.15-.08-.25-.1-.28-.05-.08-.12-.14-.13-.15-.08-.06-.12-.07-.17-.14-.04-.05-.05-.1-.06-.13.31.08.58.12.79.14.38.04.65.02.83.01ZM38.35,32.67s-.03,0-.04-.01c-.11-.01-.21-.03-.32-.05-.26-.06-.52-.14-.78-.22-.21-.07-.43-.14-.45-.39,0-.08,0-.18.02-.25.01-.05.04-.09.08-.13.01,0,.02-.02.03-.02.02-.02.03-.04.06-.06.15-.13.34-.14.51-.05.06.03.11.06.16.1.01,0,.03.01.04.02.16.06.33.12.49.19.18.04.36.11.52.21.16.1.33.23.38.42,0,0,0,.01,0,.02,0,0,0,0,0,0,0,.02.02.03.02.05,0,0,0,0,0,0,.02.03.02.05.02.08,0,.01,0,.03,0,.04,0,.03-.02.05-.04.07-.01,0-.02.02-.03.03-.01,0-.03.01-.05.01-.01,0-.03.01-.04.02,0,0,0,0-.01,0-.02,0-.04,0-.06,0,0,0,0,0,0,0-.02,0-.04,0-.06,0,0,0-.02,0-.02,0-.11,0-.22,0-.32-.04-.03-.01-.06-.02-.09-.03Z"/>
  <path class="cls-4" d="M41.56,31.86c1.36.49,2.72.98,4.08,1.47-.16.24-.25.41-.31.53,0,.02-.07.14-.18.25-.07.07-.12.09-.16.09-.06.01-.15,0-.21-.06-.05-.06-.03-.12-.03-.4,0-.19-.01-.23-.02-.26-.01-.03-.05-.12-.18-.23-.09-.07-.16-.11-.47-.22-.39-.14-.46-.15-.53-.14-.06,0-.2.01-.33.1-.11.07-.16.16-.26.34-.13.25-.06.24-.21.59-.03.06-.07.16-.05.28,0,.04.02.1.07.15.04.04.08.04.26.07.1.02.11.02.26.05.11.02.15.02.21.01.03,0,.1-.02.13-.08.02-.03.02-.05.02-.18,0-.14,0-.18.01-.21.01-.06.03-.1.04-.13h.43l-.19,1.27c-.21-.07-.38-.13-.49-.17-.15-.05-.3-.09-.44-.15-.14-.06-.25-.12-.37-.08-.05.02-.09.05-.11.08,0,.49,0,.99,0,1.48.04.03.1.07.17.13.19.15.21.21.33.29.11.08.21.11.37.17.14.05.25.07.45.1.35.06.4.03.42,0,.04-.05.03-.12,0-.17-.03-.06-.09-.06-.22-.11,0,0-.12-.05-.26-.12-.11-.06-.19-.11-.26-.19-.04-.05-.11-.14-.12-.26,0-.19.17-.32.21-.35.09-.06.21-.12.57-.12.43,0,.62,0,.76.07.07.03.13.07.13.07.09.06.19.12.24.22.07.12.04.24.03.33-.03.2-.14.33-.25.47-.15.19-.32.32-.38.37-.45.31-1.29.06-1.62-.05-.7-.22-1.56-.51-2.53-.9.05-.16.08-.29.09-.38,0-.05.02-.12.07-.15.05-.03.1,0,.12,0,.05.02.07.04.12.08.06.04.08.04.17.08.05.02.12.06.2.13.22-1.23.43-2.45.65-3.68,0-.02-.02-.06-.04-.09-.02-.03-.05-.05-.11-.08-.12-.06-.19-.03-.23-.07-.03-.03-.05-.09,0-.24Z"/>
  <path class="cls-4" d="M46.62,33.35c.62.26,1.24.52,1.86.79-.27.53-.54,1.06-.81,1.59.01.04.03.09.07.1.07.03.16-.05.3-.18.19-.18.31-.3.37-.36.12-.12.23-.19.44-.33.34-.23.5-.34.72-.4.2-.06.44-.13.67-.02.18.09.26.24.29.29.15.27.08.57.01.85-.21.85-.32,1.28-.53,1.68-.51,1-.52,1.01-.52,1.01s-.23.4-.18.71c.01.08.03.15.08.22.06.07.13.08.2.18.05.08.04.12.04.13-.01.03-.04.05-.06.06-.07-.02-.18-.05-.3-.11-.13-.06-.23-.12-.27-.15-.19-.13-.48-.32-.84-.56.24-.5.44-.89.62-1.24.06-.13.18-.35.26-.67.02-.1.07-.31.06-.59,0-.26-.02-.48-.16-.56-.11-.06-.24-.02-.35.01-.12.04-.23.1-.44.29-.24.22-.37.33-.48.49-.06.09-.16.25-.26.63-.08.27-.16.67-.18,1.18-.57-.22-1.14-.45-1.71-.67.02-.14.07-.24.1-.3.05-.08.09-.14.15-.15.05-.01.08.01.26.08.15.06.18.06.2.04.02-.01.05-.04.07-.19.02-.14.01-.24.01-.29,0,0,0-.08.04-.38.04-.25.26-1.22.61-2.54-.03-.08-.07-.13-.11-.17-.04-.04-.09-.07-.17-.12-.12-.07-.14-.07-.16-.11-.02-.04-.01-.1.08-.22Z"/>
  <path class="cls-7" d="M32.33,87.21c-.18.76-.37,1.6-.55,2.53-.23,1.17-.31,1.72-.14,2.41.06.26.17.67.47,1.08.68.93,2.15,1.56,3.09,1.08.25-.13.58-.39,1.24-2.48.38-1.21.62-2.23.77-2.93"/>
  <path class="cls-3" d="M40.24,11.98c1.44-5.05,8.02-6.11,10.55-1.36.84,1.12,2.05,1.97,3.39,2.56-1.44-.3-2.82-1.05-3.84-2.2-2.66-4.19-8.01-3.2-10.1,1h0Z"/>
  <path class="cls-3" d="M63.22,14.83c1.49.11,2.99.06,4.43-.29,1.43-.45,3.12-.61,4.53.09,2.56,1.6,5.6,1.56,8.57,1.88,1.32.21,3.49-.02,4.54.93.92.92,1.19,2.35.62,3.5-.6,1.01-1.81,1.41-2.3,2.45-1.12,1.94-.58,4.48,1.2,5.88-1.97-1.22-2.75-4.02-1.62-6.11.34-.72.96-1.29,1.52-1.76,1.15-.82,1.06-2.58.12-3.47-.74-.7-3.1-.54-4.15-.69-2.24-.26-4.54-.36-6.71-1.09-1.43-.51-2.52-1.57-4.08-1.56-2.17.18-4.48.77-6.67.22h0Z"/>
  <path class="cls-3" d="M88.05,33.83c2.59,3.54,2.34,8.28,2.7,12.45-3.15-2.19-6.7-4.49-9.66-6.94-.93-.82-1.84-1.68-2.68-2.59,3.78,3.23,8.12,5.61,12.13,8.53,0,0-.57.31-.57.31-.26-3.93.03-8.21-1.93-11.76h0Z"/>
  <path class="cls-3" d="M37.19,13.64c-1.64,2.18-4.23,3.46-6.84,4.1-.86.25-1.75.44-2.63.64v-.63c3.08.45,6.08,1.72,9,2.69.94.26,1.94.09,3.03.1,4.23.19,8.23,1.83,12,3.62-3.87-1.39-7.87-2.82-12-2.95-1.05.01-2.15.19-3.2-.07-3.51-1.14-6.85-2.59-10.53-3.03,3.93-.86,8.33-1.29,11.18-4.46h0Z"/>
  <path class="cls-3" d="M55.58,25.78c3.15,1.93,6.58,2.96,10.03,4.21,3.44,1.25,6.72,2.96,9.75,5.01-3.3-1.54-6.57-3.09-10.01-4.31-3.4-1.26-6.97-2.51-9.77-4.91h0Z"/>
  <path class="cls-3" d="M16.3,40.14c4.88-1.73,9.93,3.14,9.58,8.02-.87-4.59-4.68-8.5-9.58-8.02h0Z"/>
  <path class="cls-3" d="M26.06,51.67c.35,1.78-.38,3.78-1.79,4.91.86-1.6,1.43-3.13,1.79-4.91h0Z"/>
  <path class="cls-3" d="M41.9,44.56c-4.42,2.86-6.93,7.92-7.19,13.11-.85-5.27,2.13-11.16,7.19-13.11h0Z"/>
  <path class="cls-3" d="M34.86,60.03c.34,2.47,1.33,4.64,2.96,6.53-2.12-1.34-3.35-4.06-2.96-6.53h0Z"/>
  <path class="cls-3" d="M51.85,72.36c6.42-1.16,11.69-6.55,12.28-13.11.55,6.8-5.53,13.06-12.28,13.11h0Z"/>
  <path class="cls-3" d="M33.87,65.6c1.32,2.83-.8,6.52-4.08,6.16-.98-.04-1.95-.39-2.69-.99,3.88,1.97,7.7-.88,6.77-5.17h0Z"/>
  <path class="cls-3" d="M25.8,57.44c-1.6,2.04-5.66,10.88-1.43,11.6.61.06,1.23-.24,1.71-.67-.4.51-1.02.89-1.72.91-4.96-.64-.81-9.91,1.44-11.84h0Z"/>
  <path class="cls-3" d="M14.55,73.1c-.82,1.85-.65,3.76-.7,5.7,0,.32-.12.87.01,1.07.37-.1.77-.48,1.26-.54.39-.07.82.07,1.09.34.41.35.64,1.25,1.01.43.47-1.2,1.46-2.33,2.79-2.59-1.25.48-2.02,1.5-2.44,2.75-.07.15-.13.32-.31.48-.93.61-1.12-1.22-2.05-.95-.5.07-.8.57-1.41.55-.72-.15-.39-1.11-.4-1.59.07-1.94.08-3.99,1.15-5.67h0Z"/>
  <path class="cls-3" d="M29.36,74.75c.23,1.98.84,4.12-.1,6.01-.24.49-.27.87.28,1.02.82.11.81-1.09,1.09-1.7.35-1.09.71-2.18,1.12-3.25-.42,1.73-.56,3.42-1.32,5.05-.45.66-1.57.44-1.81-.33-.1-.43.09-.73.19-.99.92-1.81.44-3.88.55-5.82h0Z"/>
  <path class="cls-3" d="M32.75,80.61c.16,1.87-.74,4.41.97,5.72.76.65,1.77.84,2.77,1.04,1.95.3,4.13.58,6.02.05.86-.31,1.87-.89,1.71-1.94-.27-2.06.26-4.46,2.24-5.49-1.82,1.2-2.19,3.43-1.86,5.44.28,1.19-.95,2.08-1.93,2.41-2.07.63-4.19.33-6.27-.03-1.02-.2-2.14-.45-2.93-1.19-1.8-1.47-.79-4.05-.73-6.02h0Z"/>
</svg>